<svg width="422" height="391" viewBox="0 0 422 391" fill="none" xmlns="http://www.w3.org/2000/svg">
<path d="M199.4 390.05H6.30003C4.78564 390.05 3.33328 389.448 2.26245 388.378C1.19161 387.307 0.590027 385.854 0.590027 384.34V5.66C0.603212 4.15429 1.21061 2.71475 2.28002 1.65471C3.34943 0.594662 4.79426 -5.77259e-05 6.30003 4.20255e-09H199.4C200.15 4.20255e-09 200.892 0.147692 201.585 0.434647C202.278 0.721601 202.907 1.1422 203.438 1.67242C203.968 2.20264 204.388 2.83211 204.675 3.52488C204.962 4.21765 205.11 4.96015 205.11 5.71V384.34C205.11 385.09 204.962 385.832 204.675 386.525C204.388 387.218 203.968 387.847 203.438 388.378C202.907 388.908 202.278 389.328 201.585 389.615C200.892 389.902 200.15 390.05 199.4 390.05ZM6.30003 0.200001C4.85276 0.202644 3.46552 0.77874 2.44214 1.80212C1.41877 2.82549 0.84267 4.21273 0.840027 5.66V384.34C0.84267 385.787 1.41877 387.174 2.44214 388.198C3.46552 389.221 4.85276 389.797 6.30003 389.8H199.4C200.847 389.797 202.235 389.221 203.258 388.198C204.281 387.174 204.857 385.787 204.86 384.34V5.66C204.857 4.21273 204.281 2.82549 203.258 1.80212C202.235 0.77874 200.847 0.202644 199.4 0.200001H6.30003Z" fill="#EBEBEB"/>
<path d="M415.7 390.05H222.6C221.086 390.05 219.633 389.448 218.562 388.378C217.492 387.307 216.89 385.854 216.89 384.34V5.66C216.903 4.15429 217.511 2.71475 218.58 1.65471C219.649 0.594662 221.094 -5.77259e-05 222.6 4.20255e-09H415.7C417.214 4.20256e-09 418.667 0.601588 419.738 1.67242C420.808 2.74325 421.41 4.19561 421.41 5.71V384.34C421.41 385.09 421.262 385.832 420.975 386.525C420.688 387.218 420.268 387.847 419.738 388.378C419.207 388.908 418.578 389.328 417.885 389.615C417.192 389.902 416.45 390.05 415.7 390.05ZM222.6 0.200001C221.153 0.202644 219.766 0.77874 218.742 1.80212C217.719 2.82549 217.143 4.21273 217.14 5.66V384.34C217.143 385.787 217.719 387.174 218.742 388.198C219.766 389.221 221.153 389.797 222.6 389.8H415.7C417.147 389.797 418.535 389.221 419.558 388.198C420.581 387.174 421.157 385.787 421.16 384.34V5.66C421.157 4.21273 420.581 2.82549 419.558 1.80212C418.535 0.77874 417.147 0.202644 415.7 0.200001H222.6Z" fill="#EBEBEB"/>
<path d="M74.05 113.25L75.67 116.52L79.29 117.05L76.67 119.6L77.29 123.2L74.05 121.5L70.82 123.2L71.44 119.6L68.82 117.05L72.44 116.52L74.05 113.25Z" fill="#EBEBEB"/>
<path d="M397.7 267.48L399.32 270.76L402.94 271.29L400.32 273.83L400.94 277.44L397.7 275.74L394.47 277.44L395.09 273.83L392.47 271.29L396.09 270.76L397.7 267.48Z" fill="#F5F5F5"/>
<path d="M333.6 362.57L335.22 365.84L338.83 366.37L336.21 368.92L336.83 372.52L333.6 370.82L330.37 372.52L330.98 368.92L328.37 366.37L331.98 365.84L333.6 362.57Z" fill="#F5F5F5"/>
<path d="M186.94 55.15L187.54 56.37L188.89 56.57C188.965 56.5798 189.036 56.6109 189.095 56.6597C189.153 56.7084 189.196 56.7727 189.219 56.8451C189.242 56.9175 189.244 56.9949 189.225 57.0684C189.206 57.1419 189.166 57.2083 189.11 57.26L188.11 58.21L188.34 59.55C188.352 59.6246 188.343 59.7009 188.314 59.7707C188.285 59.8405 188.238 59.901 188.177 59.9454C188.116 59.9899 188.043 60.0167 187.968 60.0228C187.893 60.0289 187.817 60.0141 187.75 59.98L186.55 59.34L185.35 59.98C185.283 60.0141 185.207 60.0289 185.132 60.0228C185.057 60.0167 184.985 59.9899 184.924 59.9454C184.862 59.901 184.815 59.8405 184.786 59.7707C184.757 59.7009 184.748 59.6246 184.76 59.55L184.98 58.21L183.98 57.26C183.924 57.2077 183.884 57.1404 183.865 57.0662C183.847 56.9919 183.849 56.9138 183.874 56.8412C183.898 56.7685 183.942 56.7043 184.002 56.6562C184.062 56.6081 184.134 56.5782 184.21 56.57L185.55 56.37L186.15 55.15C186.174 55.0637 186.226 54.9876 186.297 54.9334C186.368 54.8792 186.455 54.8499 186.545 54.8499C186.635 54.8499 186.722 54.8792 186.793 54.9334C186.864 54.9876 186.916 55.0637 186.94 55.15Z" fill="#EBEBEB"/>
<path d="M21.78 347L22.38 348.21L23.72 348.41C23.7961 348.42 23.8677 348.452 23.9267 348.501C23.9857 348.55 24.0296 348.615 24.0536 348.688C24.0776 348.761 24.0806 348.839 24.0623 348.914C24.044 348.989 24.0051 349.056 23.95 349.11L22.95 350.05L23.18 351.39C23.1919 351.465 23.1828 351.541 23.154 351.611C23.1252 351.681 23.0776 351.741 23.0166 351.785C22.9556 351.83 22.8834 351.857 22.8082 351.863C22.7329 351.869 22.6574 351.854 22.59 351.82L21.39 351.19L20.19 351.82C20.1227 351.854 20.0472 351.869 19.9719 351.863C19.8967 351.857 19.8245 351.83 19.7635 351.785C19.7025 351.741 19.6549 351.681 19.6261 351.611C19.5972 351.541 19.5882 351.465 19.6 351.39L19.83 350.05L18.83 349.11C18.7752 349.057 18.7362 348.99 18.7173 348.916C18.6985 348.842 18.7007 348.765 18.7235 348.692C18.7464 348.619 18.789 348.554 18.8467 348.505C18.9044 348.455 18.9748 348.422 19.05 348.41L20.39 348.21L21 347C21.0268 346.918 21.0789 346.846 21.149 346.795C21.219 346.744 21.3034 346.716 21.39 346.716C21.4767 346.716 21.5611 346.744 21.6311 346.795C21.7012 346.846 21.7533 346.918 21.78 347Z" fill="#F5F5F5"/>
<path d="M48.75 42.3L49.35 43.52L50.7 43.71C50.7753 43.722 50.8457 43.7548 50.9034 43.8046C50.961 43.8544 51.0037 43.9193 51.0265 43.992C51.0494 44.0647 51.0515 44.1423 51.0327 44.2161C51.0139 44.29 50.9749 44.3571 50.92 44.41L49.92 45.41L50.15 46.74C50.166 46.8155 50.1598 46.894 50.1322 46.9661C50.1045 47.0381 50.0566 47.1007 49.9943 47.1461C49.9319 47.1916 49.8577 47.218 49.7807 47.2223C49.7036 47.2265 49.627 47.2084 49.56 47.17L48.36 46.54L47.16 47.17C47.093 47.2084 47.0164 47.2265 46.9393 47.2223C46.8623 47.218 46.7881 47.1916 46.7258 47.1461C46.6634 47.1007 46.6155 47.0381 46.5879 46.9661C46.5602 46.894 46.554 46.8155 46.57 46.74L46.79 45.41L45.79 44.41C45.735 44.3565 45.6961 44.2885 45.6778 44.214C45.6595 44.1394 45.6625 44.0612 45.6864 43.9882C45.7104 43.9153 45.7544 43.8505 45.8134 43.8013C45.8723 43.7521 45.9439 43.7205 46.02 43.71L47.36 43.52L48 42.3C48.0321 42.2274 48.0847 42.1656 48.1513 42.1222C48.2178 42.0789 48.2956 42.0558 48.375 42.0558C48.4545 42.0558 48.5322 42.0789 48.5988 42.1222C48.6654 42.1656 48.7179 42.2274 48.75 42.3Z" fill="#EBEBEB"/>
<path d="M47.1301 283.32C47.132 283.583 47.0557 283.842 46.9108 284.062C46.7658 284.282 46.5588 284.454 46.316 284.556C46.0731 284.658 45.8054 284.686 45.5468 284.636C45.2881 284.585 45.0502 284.46 44.8632 284.274C44.6762 284.088 44.5485 283.851 44.4964 283.593C44.4443 283.335 44.47 283.067 44.5704 282.823C44.6707 282.58 44.8412 282.371 45.0601 282.225C45.279 282.078 45.5366 282 45.8001 282C46.1511 282 46.4878 282.139 46.737 282.386C46.9861 282.633 47.1274 282.969 47.1301 283.32Z" fill="#EBEBEB"/>
<path d="M236.67 116.89C236.672 117.153 236.596 117.412 236.451 117.632C236.306 117.852 236.099 118.024 235.856 118.126C235.613 118.228 235.345 118.256 235.087 118.206C234.828 118.155 234.59 118.03 234.403 117.844C234.216 117.658 234.089 117.421 234.036 117.163C233.984 116.905 234.01 116.637 234.11 116.393C234.211 116.15 234.381 115.941 234.6 115.795C234.819 115.648 235.077 115.57 235.34 115.57C235.514 115.569 235.687 115.602 235.848 115.668C236.01 115.733 236.156 115.83 236.28 115.953C236.404 116.076 236.502 116.222 236.569 116.383C236.636 116.543 236.67 116.716 236.67 116.89Z" fill="#EBEBEB"/>
<path d="M167.71 43.4C167.71 43.6631 167.632 43.9202 167.486 44.1389C167.34 44.3576 167.132 44.5281 166.889 44.6288C166.646 44.7294 166.379 44.7558 166.121 44.7045C165.863 44.6531 165.626 44.5265 165.44 44.3405C165.254 44.1545 165.127 43.9175 165.076 43.6595C165.024 43.4015 165.051 43.1341 165.151 42.891C165.252 42.648 165.422 42.4403 165.641 42.2942C165.86 42.148 166.117 42.07 166.38 42.07C166.732 42.0726 167.069 42.2136 167.318 42.4624C167.566 42.7113 167.707 43.0481 167.71 43.4Z" fill="#F5F5F5"/>
<path d="M169.816 367.544C173.767 366.611 176.214 362.653 175.281 358.702C174.349 354.751 170.39 352.304 166.439 353.237C162.489 354.169 160.042 358.128 160.974 362.079C161.907 366.029 165.865 368.476 169.816 367.544Z" fill="#F0F0F0"/>
<path d="M165.6 356.09C164.094 356.087 162.627 356.563 161.41 357.45C160.789 358.876 160.636 360.462 160.974 361.98C161.313 363.498 162.124 364.869 163.292 365.896C164.461 366.923 165.925 367.552 167.473 367.693C169.022 367.834 170.576 367.479 171.91 366.68C172.501 365.588 172.797 364.361 172.771 363.119C172.745 361.877 172.397 360.664 171.761 359.597C171.125 358.531 170.222 357.648 169.143 357.035C168.063 356.422 166.842 356.1 165.6 356.1V356.09Z" fill="#E6E6E6"/>
<path d="M108.68 232.64H47.83V205.17L108.68 132.83H137.8V206.73H152.89V232.64H137.8V255.12H108.68V232.64ZM108.68 206.73V168.89L76.52 206.73H108.68Z" fill="#C1C1C1"/>
<path d="M163.3 194.51C163.3 171.65 167.413 155.65 175.64 146.51C183.867 137.37 196.403 132.803 213.25 132.81C221.337 132.81 227.98 133.81 233.18 135.81C237.904 137.512 242.229 140.163 245.89 143.6C248.976 146.546 251.589 149.949 253.64 153.69C255.669 157.596 257.198 161.742 258.19 166.03C260.451 175.191 261.579 184.594 261.55 194.03C261.55 215.843 257.86 231.807 250.48 241.92C243.1 252.033 230.39 257.093 212.35 257.1C202.23 257.1 194.053 255.487 187.82 252.26C181.537 248.981 176.244 244.082 172.49 238.07C169.59 233.643 167.333 227.587 165.72 219.9C164.045 211.542 163.234 203.034 163.3 194.51ZM196.44 194.59C196.44 209.923 197.79 220.38 200.49 225.96C203.19 231.54 207.113 234.343 212.26 234.37C213.893 234.388 215.514 234.082 217.028 233.469C218.542 232.856 219.919 231.949 221.08 230.8C223.573 228.42 225.407 224.66 226.58 219.52C227.753 214.38 228.34 206.38 228.34 195.52C228.34 179.56 226.987 168.83 224.28 163.33C221.573 157.83 217.513 155.083 212.1 155.09C206.58 155.09 202.58 157.893 200.1 163.5C197.62 169.107 196.4 179.47 196.44 194.59Z" fill="#C1C1C1"/>
<path d="M332.74 232.64H271.89V205.17L332.74 132.83H361.86V206.73H377V232.64H361.86V255.12H332.74V232.64ZM332.74 206.73V168.89L300.59 206.73H332.74Z" fill="#C1C1C1"/>
<g opacity="0.3">
<path d="M162 90.62C162 90.9902 161.89 91.3522 161.684 91.6599C161.478 91.9676 161.186 92.2073 160.843 92.3486C160.501 92.4898 160.125 92.5262 159.761 92.4533C159.398 92.3803 159.065 92.2012 158.804 91.9387C158.543 91.6762 158.366 91.342 158.295 90.9786C158.224 90.6152 158.262 90.2389 158.405 89.8974C158.548 89.5559 158.79 89.2645 159.098 89.0602C159.407 88.856 159.77 88.748 160.14 88.75C160.385 88.75 160.628 88.7984 160.854 88.8925C161.08 88.9866 161.286 89.1245 161.459 89.2983C161.632 89.4721 161.768 89.6783 161.861 89.9051C161.954 90.1319 162.001 90.3749 162 90.62Z" fill="#C1C1C1"/>
<path d="M33.97 162.45C34.699 162.45 35.29 161.859 35.29 161.13C35.29 160.401 34.699 159.81 33.97 159.81C33.241 159.81 32.65 160.401 32.65 161.13C32.65 161.859 33.241 162.45 33.97 162.45Z" fill="#C1C1C1"/>
<path d="M252.05 355.22C253.094 355.22 253.94 354.374 253.94 353.33C253.94 352.286 253.094 351.44 252.05 351.44C251.006 351.44 250.16 352.286 250.16 353.33C250.16 354.374 251.006 355.22 252.05 355.22Z" fill="#C1C1C1"/>
<path d="M297.5 278.32C298.229 278.32 298.82 277.729 298.82 277C298.82 276.271 298.229 275.68 297.5 275.68C296.771 275.68 296.18 276.271 296.18 277C296.18 277.729 296.771 278.32 297.5 278.32Z" fill="#C1C1C1"/>
<path d="M385.17 40.62C385.17 40.8811 385.093 41.1363 384.948 41.3533C384.803 41.5704 384.596 41.7396 384.355 41.8395C384.114 41.9394 383.849 41.9656 383.592 41.9146C383.336 41.8637 383.101 41.738 382.917 41.5534C382.732 41.3688 382.606 41.1336 382.555 40.8775C382.504 40.6214 382.531 40.356 382.631 40.1148C382.73 39.8736 382.9 39.6675 383.117 39.5224C383.334 39.3774 383.589 39.3 383.85 39.3C384.2 39.3 384.536 39.4391 384.783 39.6866C385.031 39.9342 385.17 40.2699 385.17 40.62Z" fill="#C1C1C1"/>
<path d="M133.75 14C133.75 14.2611 133.673 14.5163 133.528 14.7333C133.383 14.9504 133.176 15.1196 132.935 15.2195C132.694 15.3194 132.429 15.3456 132.173 15.2946C131.916 15.2437 131.681 15.118 131.497 14.9334C131.312 14.7488 131.186 14.5136 131.135 14.2575C131.084 14.0015 131.111 13.736 131.211 13.4949C131.31 13.2537 131.48 13.0475 131.697 12.9025C131.914 12.7574 132.169 12.68 132.43 12.68C132.779 12.6826 133.114 12.8225 133.361 13.0695C133.608 13.3165 133.747 13.6507 133.75 14Z" fill="#C1C1C1"/>
<path d="M238.7 83.26C239.429 83.26 240.02 82.669 240.02 81.94C240.02 81.211 239.429 80.62 238.7 80.62C237.971 80.62 237.38 81.211 237.38 81.94C237.38 82.669 237.971 83.26 238.7 83.26Z" fill="#C1C1C1"/>
</g>
<path d="M102.23 83.27C114.331 83.27 124.14 73.4606 124.14 61.36C124.14 49.2595 114.331 39.45 102.23 39.45C90.1294 39.45 80.32 49.2595 80.32 61.36C80.32 73.4606 90.1294 83.27 102.23 83.27Z" fill="#C1C1C1"/>
<path opacity="0.7" d="M102.23 83.27C114.331 83.27 124.14 73.4606 124.14 61.36C124.14 49.2595 114.331 39.45 102.23 39.45C90.1294 39.45 80.32 49.2595 80.32 61.36C80.32 73.4606 90.1294 83.27 102.23 83.27Z" fill="white"/>
<path opacity="0.2" d="M94.68 44.83C91.6962 44.8209 88.7421 45.4232 86 46.6C82.63 50.3039 80.6298 55.05 80.3321 60.0487C80.0344 65.0474 81.4573 69.9974 84.3639 74.0751C87.2705 78.1528 91.4857 81.1123 96.3081 82.4613C101.131 83.8104 106.269 83.4676 110.87 81.49C113.722 78.3466 115.601 74.4427 116.277 70.2524C116.953 66.062 116.398 61.7654 114.68 57.8843C112.961 54.0033 110.152 50.7047 106.595 48.3891C103.038 46.0735 98.8846 44.8406 94.64 44.84L94.68 44.83Z" fill="#C1C1C1"/>
<path opacity="0.2" d="M92.5 50.62C92.5 51.0156 92.3827 51.4022 92.1629 51.7311C91.9432 52.06 91.6308 52.3164 91.2654 52.4678C90.8999 52.6191 90.4978 52.6587 90.1098 52.5816C89.7219 52.5044 89.3655 52.3139 89.0858 52.0342C88.8061 51.7545 88.6156 51.3981 88.5384 51.0102C88.4613 50.6222 88.5009 50.2201 88.6522 49.8546C88.8036 49.4892 89.06 49.1768 89.3889 48.9571C89.7178 48.7373 90.1044 48.62 90.5 48.62C91.0304 48.62 91.5391 48.8307 91.9142 49.2058C92.2893 49.5809 92.5 50.0896 92.5 50.62Z" fill="#C1C1C1"/>
<path opacity="0.2" d="M116.06 48.62C116.06 49.0156 115.943 49.4022 115.723 49.7311C115.503 50.06 115.191 50.3164 114.825 50.4678C114.46 50.6191 114.058 50.6587 113.67 50.5816C113.282 50.5044 112.925 50.3139 112.646 50.0342C112.366 49.7545 112.176 49.3981 112.098 49.0102C112.021 48.6222 112.061 48.2201 112.212 47.8546C112.364 47.4892 112.62 47.1768 112.949 46.9571C113.278 46.7373 113.664 46.62 114.06 46.62C114.59 46.62 115.099 46.8307 115.474 47.2058C115.849 47.5809 116.06 48.0896 116.06 48.62Z" fill="#C1C1C1"/>
<path opacity="0.2" d="M112.06 62.9C112.06 63.5487 111.868 64.1829 111.507 64.7223C111.147 65.2617 110.635 65.6821 110.035 65.9303C109.436 66.1786 108.776 66.2435 108.14 66.117C107.504 65.9904 106.919 65.678 106.461 65.2193C106.002 64.7606 105.69 64.1761 105.563 63.5399C105.436 62.9036 105.501 62.2441 105.75 61.6448C105.998 61.0454 106.418 60.5332 106.958 60.1728C107.497 59.8124 108.131 59.62 108.78 59.62C109.65 59.62 110.484 59.9656 111.099 60.5807C111.714 61.1958 112.06 62.0301 112.06 62.9Z" fill="#C1C1C1"/>
<path opacity="0.2" d="M101.64 72.25C101.64 73.1163 101.383 73.9631 100.902 74.6834C100.421 75.4037 99.7365 75.9651 98.9362 76.2966C98.1358 76.6281 97.2551 76.7148 96.4055 76.5458C95.5559 76.3768 94.7754 75.9597 94.1629 75.3471C93.5503 74.7346 93.1332 73.9541 92.9642 73.1045C92.7952 72.2548 92.8819 71.3742 93.2134 70.5738C93.5449 69.7735 94.1063 69.0894 94.8266 68.6082C95.5469 68.1269 96.3937 67.87 97.26 67.87C98.4217 67.87 99.5357 68.3315 100.357 69.1529C101.179 69.9743 101.64 71.0883 101.64 72.25Z" fill="#C1C1C1"/>
<path d="M361.9 325.646C364.339 315.31 357.938 304.953 347.601 302.513C337.265 300.073 326.908 306.475 324.468 316.811C322.029 327.148 328.43 337.505 338.767 339.945C349.103 342.384 359.46 335.983 361.9 325.646Z" fill="#C1C1C1"/>
<path opacity="0.3" d="M361.9 325.646C364.339 315.31 357.938 304.953 347.601 302.513C337.265 300.073 326.908 306.475 324.468 316.811C322.029 327.148 328.43 337.505 338.767 339.945C349.103 342.384 359.46 335.983 361.9 325.646Z" fill="white"/>
<path opacity="0.4" d="M355.33 306.34C351.067 305.053 346.49 305.287 342.38 307C338.27 308.714 334.883 311.802 332.796 315.735C330.71 319.669 330.055 324.206 330.942 328.569C331.829 332.933 334.203 336.853 337.66 339.66C339.453 340.205 341.316 340.481 343.19 340.48C347.16 340.479 351.032 339.25 354.276 336.96C357.519 334.671 359.974 331.433 361.304 327.693C362.634 323.952 362.774 319.892 361.705 316.069C360.635 312.246 358.408 308.847 355.33 306.34Z" fill="#C1C1C1"/>
<path d="M324.83 327C304.3 336.66 319.61 344.11 348.54 333.71C375.33 324.08 385.54 311.94 361.54 315.71C362.83 320.76 329.28 333.83 324.83 327Z" fill="#C1C1C1"/>
<path opacity="0.2" d="M355.1 132.83C328.21 151 293.4 175 283.79 232.64H281.74C291.09 175.64 324.63 151.07 351.53 132.83H355.1Z" fill="black"/>
<path d="M216 313.27C199 313.27 182.19 305.6 174 293.08C168.95 285.34 163.08 269.13 180.56 247.5L182.11 248.76C169.75 264.06 167.47 279.41 175.68 291.99C185.68 307.29 209.27 314.99 229.41 309.51C250.04 303.9 262.56 285.96 263.77 260.29C267.9 172.48 314.55 145.43 348.61 125.68C369.78 113.41 385.07 104.55 381.71 85.84C381.24 83.25 380.21 81.46 378.54 80.36C374.19 77.49 365.69 79.48 355.85 81.77C336.54 86.27 310.1 92.43 294.35 65.64L296.08 64.64C311.08 90.17 335.65 84.44 355.4 79.84C365.69 77.45 374.57 75.38 379.64 78.71C381.79 80.12 383.11 82.35 383.64 85.51C387.25 105.59 370.64 115.23 349.59 127.43C315.92 146.95 269.82 173.68 265.74 260.43C264.48 287.03 251.42 305.64 229.9 311.49C225.366 312.697 220.692 313.296 216 313.27Z" fill="#C1C1C1"/>
<path opacity="0.2" d="M216 313.27C199 313.27 182.19 305.6 174 293.08C168.95 285.34 163.08 269.13 180.56 247.5L182.11 248.76C169.75 264.06 167.47 279.41 175.68 291.99C185.68 307.29 209.27 314.99 229.41 309.51C250.04 303.9 262.56 285.96 263.77 260.29C267.9 172.48 314.55 145.43 348.61 125.68C369.78 113.41 385.07 104.55 381.71 85.84C381.24 83.25 380.21 81.46 378.54 80.36C374.19 77.49 365.69 79.48 355.85 81.77C336.54 86.27 310.1 92.43 294.35 65.64L296.08 64.64C311.08 90.17 335.65 84.44 355.4 79.84C365.69 77.45 374.57 75.38 379.64 78.71C381.79 80.12 383.11 82.35 383.64 85.51C387.25 105.59 370.64 115.23 349.59 127.43C315.92 146.95 269.82 173.68 265.74 260.43C264.48 287.03 251.42 305.64 229.9 311.49C225.366 312.697 220.692 313.296 216 313.27Z" fill="white"/>
<path d="M273.76 42C278.368 42.0266 282.945 42.7446 287.34 44.13C287.34 44.13 298.34 62.9 299.64 67.2C299.18 71.44 292.03 78.39 292.03 78.39L273.76 42Z" fill="#C1C1C1"/>
<path opacity="0.3" d="M273.76 42C278.368 42.0266 282.945 42.7446 287.34 44.13C287.34 44.13 298.34 62.9 299.64 67.2C299.18 71.44 292.03 78.39 292.03 78.39L273.76 42Z" fill="white"/>
<path d="M306.34 133.13C302.104 127.95 298.241 122.477 294.78 116.75C293.94 115.303 293.143 113.83 292.39 112.33C291.96 111.48 291.55 110.63 291.15 109.77C290.625 108.933 290.218 108.028 289.94 107.08C288.74 94.41 293.08 85.08 288.94 74.91L272.46 81.35C272.46 81.35 273.86 99.47 277.06 110.35C279.06 117.08 283.54 122.9 287.87 128.29C289.22 129.97 290.52 131.7 291.87 133.39C293.22 135.08 294.58 136.45 295.87 138.04C297.82 140.45 298.46 142.76 296.99 145.6L296.74 146.05C296.32 146.79 298.28 147.63 299.52 146.05C301.52 143.47 301.24 143.63 302.98 141.43C304.04 140.1 305.25 138.65 306.3 137.43C306.806 136.83 307.088 136.072 307.095 135.287C307.102 134.502 306.835 133.739 306.34 133.13Z" fill="#C1C1C1"/>
<path opacity="0.7" d="M306.34 133.13C302.104 127.95 298.241 122.477 294.78 116.75C293.94 115.303 293.143 113.83 292.39 112.33C291.96 111.48 291.55 110.63 291.15 109.77C290.625 108.933 290.218 108.028 289.94 107.08C288.74 94.41 293.08 85.08 288.94 74.91L272.46 81.35C272.46 81.35 273.86 99.47 277.06 110.35C279.06 117.08 283.54 122.9 287.87 128.29C289.22 129.97 290.52 131.7 291.87 133.39C293.22 135.08 294.58 136.45 295.87 138.04C297.82 140.45 298.46 142.76 296.99 145.6L296.74 146.05C296.32 146.79 298.28 147.63 299.52 146.05C301.52 143.47 301.24 143.63 302.98 141.43C304.04 140.1 305.25 138.65 306.3 137.43C306.806 136.83 307.088 136.072 307.095 135.287C307.102 134.502 306.835 133.739 306.34 133.13Z" fill="white"/>
<path opacity="0.3" d="M302.31 127.92C299.695 130.723 296.792 133.244 293.65 135.44C294.08 135.92 294.5 136.44 294.93 136.9C298.076 134.775 300.933 132.25 303.43 129.39L302.31 127.92Z" fill="#C1C1C1"/>
<path opacity="0.3" d="M306.34 133.13L306.22 132.99C305.45 133.873 305.003 134.99 304.95 136.16C304.886 136.962 305.016 137.769 305.33 138.51L306.28 137.38C306.777 136.786 307.054 136.04 307.064 135.266C307.075 134.492 306.82 133.738 306.34 133.13Z" fill="#C1C1C1"/>
<path d="M269.84 54C268.053 56.6751 265.91 59.0941 263.47 61.19C262.117 62.3563 260.634 63.363 259.05 64.19C258.218 64.6163 257.356 64.9806 256.47 65.28L255.79 65.5L255.57 65.56L255.1 65.69C254.811 65.7587 254.516 65.8055 254.22 65.83C253.376 65.8945 252.528 65.8168 251.71 65.6C250.679 65.3072 249.69 64.8803 248.77 64.33C248.03 63.8972 247.312 63.4265 246.62 62.92C245.37 61.99 244.174 60.9883 243.04 59.92C240.853 57.8474 238.845 55.5926 237.04 53.18C236.692 52.71 236.52 52.1333 236.552 51.5496C236.584 50.9659 236.819 50.4117 237.216 49.9826C237.613 49.5535 238.147 49.2765 238.727 49.1993C239.306 49.1222 239.895 49.2497 240.39 49.56H240.47C242.83 51.06 245.21 52.64 247.53 54.05C248.71 54.74 249.85 55.44 250.98 55.98C251.496 56.2501 252.027 56.4905 252.57 56.7C252.908 56.8494 253.271 56.9374 253.64 56.96C253.7 56.96 253.64 56.89 253.27 56.9C253.153 56.893 253.037 56.893 252.92 56.9L252.7 56.95L253.03 56.78C253.474 56.5409 253.905 56.2772 254.32 55.99C255.215 55.3591 256.051 54.6496 256.82 53.87C258.567 52.0392 260.203 50.1057 261.72 48.08C262.551 47.1503 263.699 46.5646 264.94 46.4379C266.181 46.3112 267.424 46.6527 268.425 47.3952C269.427 48.1378 270.115 49.2279 270.355 50.4517C270.594 51.6754 270.368 52.9445 269.72 54.01L269.84 54Z" fill="#C1C1C1"/>
<path opacity="0.7" d="M269.84 54C268.053 56.6751 265.91 59.0941 263.47 61.19C262.117 62.3563 260.634 63.363 259.05 64.19C258.218 64.6163 257.356 64.9806 256.47 65.28L255.79 65.5L255.57 65.56L255.1 65.69C254.811 65.7587 254.516 65.8055 254.22 65.83C253.376 65.8945 252.528 65.8168 251.71 65.6C250.679 65.3072 249.69 64.8803 248.77 64.33C248.03 63.8972 247.312 63.4265 246.62 62.92C245.37 61.99 244.174 60.9883 243.04 59.92C240.853 57.8474 238.845 55.5926 237.04 53.18C236.692 52.71 236.52 52.1333 236.552 51.5496C236.584 50.9659 236.819 50.4117 237.216 49.9826C237.613 49.5535 238.147 49.2765 238.727 49.1993C239.306 49.1222 239.895 49.2497 240.39 49.56H240.47C242.83 51.06 245.21 52.64 247.53 54.05C248.71 54.74 249.85 55.44 250.98 55.98C251.496 56.2501 252.027 56.4905 252.57 56.7C252.908 56.8494 253.271 56.9374 253.64 56.96C253.7 56.96 253.64 56.89 253.27 56.9C253.153 56.893 253.037 56.893 252.92 56.9L252.7 56.95L253.03 56.78C253.474 56.5409 253.905 56.2772 254.32 55.99C255.215 55.3591 256.051 54.6496 256.82 53.87C258.567 52.0392 260.203 50.1057 261.72 48.08C262.551 47.1503 263.699 46.5646 264.94 46.4379C266.181 46.3112 267.424 46.6527 268.425 47.3952C269.427 48.1378 270.115 49.2279 270.355 50.4517C270.594 51.6754 270.368 52.9445 269.72 54.01L269.84 54Z" fill="white"/>
<path d="M233.29 47.42L234.46 49.42C234.46 49.42 235.35 52.04 237.14 52.52L242 50.95L241.75 50.54C241.13 49.6 241.2 47.77 241.41 46.25C241.62 44.73 240.84 44.68 240.26 45.06C239.849 45.5328 239.56 46.0995 239.42 46.71C239.181 46.3798 238.917 46.0688 238.63 45.78L237.15 44.3C236.839 43.9965 236.426 43.8217 235.992 43.8106C235.558 43.7994 235.136 43.9528 234.81 44.24L233.61 45.31C233.325 45.5733 233.139 45.9256 233.08 46.309C233.022 46.6924 233.096 47.0841 233.29 47.42Z" fill="#C1C1C1"/>
<path opacity="0.7" d="M233.29 47.42L234.46 49.42C234.46 49.42 235.35 52.04 237.14 52.52L242 50.95L241.75 50.54C241.13 49.6 241.2 47.77 241.41 46.25C241.62 44.73 240.84 44.68 240.26 45.06C239.849 45.5328 239.56 46.0995 239.42 46.71C239.181 46.3798 238.917 46.0688 238.63 45.78L237.15 44.3C236.839 43.9965 236.426 43.8217 235.992 43.8106C235.558 43.7994 235.136 43.9528 234.81 44.24L233.61 45.31C233.325 45.5733 233.139 45.9256 233.08 46.309C233.022 46.6924 233.096 47.0841 233.29 47.42Z" fill="white"/>
<path d="M278.67 40.22C273.279 41.6489 268.116 43.8268 263.33 46.69C262.583 47.1573 261.997 47.8416 261.651 48.6513C261.304 49.4609 261.213 50.3572 261.39 51.22C263.32 60.66 267.71 73.3 272.45 81.35L294.56 72.2C294.71 68.3 289.34 55.68 283.87 43.48C282.89 41.29 281 39.66 278.67 40.22Z" fill="#C1C1C1"/>
<path opacity="0.8" d="M278.67 40.22C273.279 41.6489 268.116 43.8268 263.33 46.69C262.583 47.1573 261.997 47.8416 261.651 48.6513C261.304 49.4609 261.213 50.3572 261.39 51.22C263.32 60.66 267.71 73.3 272.45 81.35L294.56 72.2C294.71 68.3 289.34 55.68 283.87 43.48C282.89 41.29 281 39.66 278.67 40.22Z" fill="white"/>
<path opacity="0.3" d="M287.3 51.21L282.91 49.74C283.91 52.31 287.44 55.56 289.91 57.47C289.11 55.47 288.22 53.37 287.3 51.21Z" fill="#C1C1C1"/>
<path d="M277.22 30.32C275.39 26.84 271.44 25.09 266.7 25.48C262.7 25.82 259.16 29.9 259.58 32.1C260 34.3 263.36 35.24 264 36L261.23 38C260.902 38.2369 260.625 38.5376 260.416 38.8843C260.207 39.2309 260.071 39.6162 260.015 40.017C259.959 40.4178 259.984 40.8258 260.09 41.2164C260.196 41.607 260.379 41.9722 260.63 42.29C261.8 43.77 263.34 45.29 264.23 46.41C271.89 46.21 277.56 43.29 279.61 40.48C278.84 36.92 279 33.78 277.22 30.32Z" fill="#C1C1C1"/>
<path opacity="0.8" d="M277.22 30.32C275.39 26.84 271.44 25.09 266.7 25.48C262.7 25.82 259.16 29.9 259.58 32.1C260 34.3 263.36 35.24 264 36L261.23 38C260.902 38.2369 260.625 38.5376 260.416 38.8843C260.207 39.2309 260.071 39.6162 260.015 40.017C259.959 40.4178 259.984 40.8258 260.09 41.2164C260.196 41.607 260.379 41.9722 260.63 42.29C261.8 43.77 263.34 45.29 264.23 46.41C271.89 46.21 277.56 43.29 279.61 40.48C278.84 36.92 279 33.78 277.22 30.32Z" fill="white"/>
<path d="M273.46 32.48C274.004 33.8746 274.122 35.3991 273.799 36.8609C273.477 38.3226 272.728 39.6559 271.648 40.6923C270.568 41.7286 269.205 42.4215 267.731 42.6833C266.257 42.9451 264.739 42.7641 263.368 42.1632C261.997 41.5623 260.835 40.5684 260.029 39.3072C259.223 38.046 258.809 36.574 258.839 35.0775C258.869 33.5809 259.342 32.1269 260.198 30.8992C261.055 29.6714 262.256 28.7252 263.65 28.18C265.521 27.451 267.605 27.4944 269.445 28.3006C271.284 29.1068 272.728 30.61 273.46 32.48Z" fill="#27272A"/>
<path d="M338.39 122.6C338.28 119.31 338.13 119.6 338.04 116.83C337.98 115.13 337.97 113.24 337.96 111.61C337.957 110.836 337.686 110.087 337.194 109.489C336.702 108.891 336.019 108.482 335.26 108.33C333.94 108.06 332.61 107.81 331.26 107.53C329.53 107.16 327.82 106.76 326.13 106.27C324.81 105.89 323.51 105.47 322.22 105C320.93 104.53 319.48 104 318.14 103.38C316.56 102.71 315 101.99 313.46 101.24C311.73 100.42 310.02 99.56 308.31 98.69C301.73 87.8 301.59 80.62 294.53 72.2L279.37 79.06C279.37 79.06 290.51 98.82 298.09 107.2C302.46 112.02 309.31 114.2 315.42 115.78C319.83 116.91 324.3 117.78 328.77 118.61C330.51 118.93 332.4 119.05 333.9 120.09C335.01 120.941 335.771 122.168 336.04 123.54C336.107 123.82 336.167 124.1 336.22 124.38C336.41 125.22 338.46 124.58 338.39 122.6Z" fill="#C1C1C1"/>
<path opacity="0.8" d="M338.39 122.6C338.28 119.31 338.13 119.6 338.04 116.83C337.98 115.13 337.97 113.24 337.96 111.61C337.957 110.836 337.686 110.087 337.194 109.489C336.702 108.891 336.019 108.482 335.26 108.33C333.94 108.06 332.61 107.81 331.26 107.53C329.53 107.16 327.82 106.76 326.13 106.27C324.81 105.89 323.51 105.47 322.22 105C320.93 104.53 319.48 104 318.14 103.38C316.56 102.71 315 101.99 313.46 101.24C311.73 100.42 310.02 99.56 308.31 98.69C301.73 87.8 301.59 80.62 294.53 72.2L279.37 79.06C279.37 79.06 290.51 98.82 298.09 107.2C302.46 112.02 309.31 114.2 315.42 115.78C319.83 116.91 324.3 117.78 328.77 118.61C330.51 118.93 332.4 119.05 333.9 120.09C335.01 120.941 335.771 122.168 336.04 123.54C336.107 123.82 336.167 124.1 336.22 124.38C336.41 125.22 338.46 124.58 338.39 122.6Z" fill="white"/>
<path opacity="0.3" d="M330.7 107.4C330.1 107.27 329.5 107.14 328.89 106.99C328.94 110.45 327.32 116.41 326.73 118.22L328.63 118.58C329.875 114.978 330.573 111.209 330.7 107.4Z" fill="#C1C1C1"/>
<path opacity="0.3" d="M338 111.61C337.997 110.837 337.728 110.089 337.238 109.492C336.748 108.894 336.067 108.484 335.31 108.33L334.31 108.14C334.471 109.277 335.052 110.312 335.94 111.04C336.511 111.568 337.195 111.958 337.94 112.18C338 112 338 111.8 338 111.61Z" fill="#C1C1C1"/>
<path d="M272.05 32.54C272.45 34.06 270.75 35.65 269.4 34.34C268.14 32.9891 266.761 31.7541 265.28 30.65C263.89 29.78 265.74 28.26 267.93 28.85C268.864 29.0848 269.728 29.5434 270.446 30.1862C271.163 30.8291 271.714 31.6369 272.05 32.54Z" fill="white"/>
<path d="M272.16 80.86C271.46 81.12 272.74 82.32 272.74 82.32C272.74 82.32 286.74 77.53 295.24 72.6C295.261 72.3016 295.21 72.0025 295.091 71.7277C294.973 71.4529 294.791 71.2103 294.56 71.02C287.285 74.7206 279.807 78.0059 272.16 80.86Z" fill="#C1C1C1"/>
<path opacity="0.5" d="M272.16 80.86C271.46 81.12 272.74 82.32 272.74 82.32C272.74 82.32 286.74 77.53 295.24 72.6C295.261 72.3016 295.21 72.0025 295.091 71.7277C294.973 71.4529 294.791 71.2103 294.56 71.02C287.285 74.7206 279.807 78.0059 272.16 80.86Z" fill="white"/>
<path d="M282.46 39.56C285.22 40.96 287.81 42.43 290.46 44.06C291.75 44.88 293.03 45.71 294.3 46.61C295.57 47.51 296.83 48.43 298.1 49.47L298.57 49.86L299.16 50.4C299.512 50.7146 299.845 51.0484 300.16 51.4C300.48 51.75 300.75 52.09 301.01 52.4C301.27 52.71 301.55 53.08 301.78 53.4C302.712 54.6856 303.573 56.0209 304.36 57.4C305.91 60.0744 307.247 62.8663 308.36 65.75C308.566 66.2948 308.576 66.8941 308.39 67.4459C308.204 67.9977 307.832 68.468 307.338 68.7768C306.845 69.0855 306.259 69.2137 305.682 69.1396C305.104 69.0654 304.57 68.7935 304.17 68.37L304.12 68.31C302.12 66.18 300.19 63.94 298.25 61.85C296.31 59.76 294.34 57.64 292.71 56.71C290.44 55.3 287.91 53.89 285.4 52.51L277.84 48.31C276.668 47.6894 275.79 46.6285 275.4 45.3608C275.01 44.093 275.139 42.7223 275.76 41.55C276.381 40.3777 277.441 39.5 278.709 39.11C279.977 38.7199 281.348 38.8494 282.52 39.47L282.46 39.56Z" fill="#C1C1C1"/>
<path opacity="0.8" d="M282.46 39.56C285.22 40.96 287.81 42.43 290.46 44.06C291.75 44.88 293.03 45.71 294.3 46.61C295.57 47.51 296.83 48.43 298.1 49.47L298.57 49.86L299.16 50.4C299.512 50.7146 299.845 51.0484 300.16 51.4C300.48 51.75 300.75 52.09 301.01 52.4C301.27 52.71 301.55 53.08 301.78 53.4C302.712 54.6856 303.573 56.0209 304.36 57.4C305.91 60.0744 307.247 62.8663 308.36 65.75C308.566 66.2948 308.576 66.8941 308.39 67.4459C308.204 67.9977 307.832 68.468 307.338 68.7768C306.845 69.0855 306.259 69.2137 305.682 69.1396C305.104 69.0654 304.57 68.7935 304.17 68.37L304.12 68.31C302.12 66.18 300.19 63.94 298.25 61.85C296.31 59.76 294.34 57.64 292.71 56.71C290.44 55.3 287.91 53.89 285.4 52.51L277.84 48.31C276.668 47.6894 275.79 46.6285 275.4 45.3608C275.01 44.093 275.139 42.7223 275.76 41.55C276.381 40.3777 277.441 39.5 278.709 39.11C279.977 38.7199 281.348 38.8494 282.52 39.47L282.46 39.56Z" fill="white"/>
<path d="M310.73 70.74L309.88 68.61C309.88 68.61 309.41 65.89 307.72 65.13L302.72 65.92L302.89 66.36C303.35 67.36 303 69.19 302.55 70.65C302.1 72.11 302.86 72.3 303.5 72.01C303.86 71.85 304.21 71.2 304.59 70.51C304.776 70.8576 304.987 71.1918 305.22 71.51L306.45 73.2C306.707 73.5502 307.087 73.7902 307.513 73.8718C307.94 73.9535 308.382 73.8706 308.75 73.64L310.11 72.77C310.428 72.5522 310.663 72.2325 310.776 71.8637C310.888 71.4948 310.872 71.0985 310.73 70.74Z" fill="#C1C1C1"/>
<path opacity="0.8" d="M310.73 70.74L309.88 68.61C309.88 68.61 309.41 65.89 307.72 65.13L302.72 65.92L302.89 66.36C303.35 67.36 303 69.19 302.55 70.65C302.1 72.11 302.86 72.3 303.5 72.01C303.86 71.85 304.21 71.2 304.59 70.51C304.776 70.8576 304.987 71.1918 305.22 71.51L306.45 73.2C306.707 73.5502 307.087 73.7902 307.513 73.8718C307.94 73.9535 308.382 73.8706 308.75 73.64L310.11 72.77C310.428 72.5522 310.663 72.2325 310.776 71.8637C310.888 71.4948 310.872 71.0985 310.73 70.74Z" fill="white"/>
<path opacity="0.3" d="M278.24 51.06L277.02 51.16L269.53 69.24C269.939 69.2695 270.351 69.2357 270.75 69.14C270.75 69.14 280.51 65.5 283.46 64.14C281.48 60.05 278.24 51.06 278.24 51.06Z" fill="#C1C1C1"/>
<path d="M264.57 55.8C265.48 60.5262 267.17 65.0682 269.57 69.24C273.23 67.98 279.33 65.6 282.29 64.24C280.3 59.975 278.535 55.609 277 51.16C273.87 51.37 267 54 264.57 55.8Z" fill="white"/>
<path opacity="0.3" d="M272 59.71C271.854 60.199 271.566 60.6337 271.173 60.959C270.779 61.2844 270.298 61.4857 269.791 61.5377C269.283 61.5896 268.771 61.4897 268.32 61.2508C267.869 61.0118 267.499 60.6444 267.257 60.1951C267.015 59.7458 266.911 59.2347 266.96 58.7266C267.008 58.2185 267.206 57.7362 267.529 57.3406C267.851 56.945 268.284 56.654 268.772 56.5044C269.26 56.3548 269.781 56.3533 270.27 56.5C270.925 56.6966 271.475 57.1452 271.799 57.747C272.124 58.3489 272.196 59.0549 272 59.71Z" fill="#C1C1C1"/>
<path opacity="0.6" d="M273.91 56.27C273.871 56.4369 273.782 56.5882 273.656 56.7039C273.529 56.8196 273.371 56.8944 273.201 56.9184C273.032 56.9424 272.859 56.9145 272.705 56.8384C272.551 56.7624 272.424 56.6416 272.341 56.4921C272.257 56.3425 272.22 56.1711 272.236 56.0004C272.251 55.8297 272.318 55.6676 272.427 55.5354C272.536 55.4033 272.683 55.3072 272.847 55.2598C273.012 55.2125 273.187 55.216 273.35 55.27C273.553 55.3348 273.723 55.4741 273.827 55.6597C273.931 55.8453 273.961 56.0634 273.91 56.27Z" fill="#C1C1C1"/>
<path opacity="0.6" d="M276.15 55.4C276.126 55.516 276.079 55.6258 276.011 55.7224C275.942 55.819 275.855 55.9003 275.753 55.961C275.651 56.0217 275.538 56.0606 275.421 56.0751C275.303 56.0895 275.184 56.0793 275.071 56.045C274.957 56.0107 274.853 55.9532 274.763 55.8761C274.673 55.7989 274.6 55.7039 274.55 55.597C274.499 55.4902 274.471 55.3739 274.467 55.2556C274.464 55.1373 274.485 55.0196 274.53 54.91C274.562 54.8042 274.615 54.7057 274.685 54.6203C274.755 54.5348 274.841 54.464 274.939 54.412C275.036 54.36 275.143 54.3277 275.253 54.3171C275.363 54.3064 275.474 54.3176 275.58 54.35C275.794 54.4148 275.974 54.5614 276.081 54.758C276.187 54.9545 276.212 55.1852 276.15 55.4Z" fill="#C1C1C1"/>
<path opacity="0.5" d="M279.29 63.19L270.04 66.84L269.49 65.02L278.73 61.37L279.29 63.19Z" fill="#C1C1C1"/>
<path opacity="0.2" d="M228.26 202.17C228.239 207.993 227.676 213.801 226.58 219.52C225.4 224.66 223.567 228.42 221.08 230.8C219.922 231.95 218.546 232.858 217.034 233.47C215.521 234.083 213.902 234.389 212.27 234.37C207.13 234.37 203.207 231.567 200.5 225.96C200.024 224.953 199.62 223.914 199.29 222.85C193.574 227.76 188.251 233.109 183.37 238.85L178.06 245.11C180.918 248.006 184.215 250.433 187.83 252.3C194.057 255.52 202.23 257.133 212.35 257.14C214.13 257.14 215.85 257.09 217.52 256.99C223.643 247.931 228.709 238.201 232.62 227.99L247.47 189.27L228.26 202.17Z" fill="black"/>
<path d="M94.39 255L111.89 272.5L160.89 226.33C144 219.88 111.16 238.19 94.39 255Z" fill="#27272A"/>
<path d="M155.42 316C149.83 310.4 137.92 298.5 137.92 298.5L184.09 249.5C190.5 266.35 172.19 299.22 155.42 316Z" fill="#27272A"/>
<path d="M222.4 205.7L241.49 168.89L204.68 188C192.857 194.132 181.939 201.872 172.24 211L109.49 270.07L140.32 300.9L199.39 238.15C208.522 228.448 216.266 217.528 222.4 205.7Z" fill="#C1C1C1"/>
<path opacity="0.6" d="M222.4 205.7L241.49 168.89L204.68 188C192.857 194.132 181.939 201.872 172.24 211L109.49 270.07L140.32 300.9L199.39 238.15C208.522 228.448 216.266 217.528 222.4 205.7Z" fill="white"/>
<path d="M183.2 240.08C190.325 240.08 196.1 234.304 196.1 227.18C196.1 220.056 190.325 214.28 183.2 214.28C176.076 214.28 170.3 220.056 170.3 227.18C170.3 234.304 176.076 240.08 183.2 240.08Z" fill="white"/>
<path d="M183.2 235.47C187.778 235.47 191.49 231.758 191.49 227.18C191.49 222.602 187.778 218.89 183.2 218.89C178.622 218.89 174.91 222.602 174.91 227.18C174.91 231.758 178.622 235.47 183.2 235.47Z" fill="#C1C1C1"/>
<path opacity="0.3" d="M150.75 289.82L120.56 259.63L145.28 236.37L174.01 265.11L150.75 289.82Z" fill="#C1C1C1"/>
<path d="M101.22 282.62C78.62 284.45 71.13 298.92 68.57 318.15C67.27 327.96 66.69 337.89 58.46 343.63C57.9649 343.967 57.5921 344.454 57.3975 345.02C57.2029 345.587 57.1969 346.2 57.3805 346.77C57.564 347.34 57.9273 347.835 58.4157 348.181C58.9042 348.527 59.4916 348.706 60.09 348.69C90.43 347.74 104.58 332.89 106.36 326.69C105.893 329.931 105.057 333.108 103.87 336.16C103.652 336.699 103.609 337.292 103.748 337.856C103.887 338.421 104.2 338.927 104.643 339.302C105.087 339.678 105.637 339.904 106.217 339.949C106.796 339.993 107.375 339.854 107.87 339.55C116.38 334.22 127.06 324.4 127.77 308.47C121.51 299.6 101.22 282.62 101.22 282.62Z" fill="#C1C1C1"/>
<path opacity="0.2" d="M101.22 282.62C78.62 284.45 71.13 298.92 68.57 318.15C67.27 327.96 66.69 337.89 58.46 343.63C57.9649 343.967 57.5921 344.454 57.3975 345.02C57.2029 345.587 57.1969 346.2 57.3805 346.77C57.564 347.34 57.9273 347.835 58.4157 348.181C58.9042 348.527 59.4916 348.706 60.09 348.69C90.43 347.74 104.58 332.89 106.36 326.69C105.893 329.931 105.057 333.108 103.87 336.16C103.652 336.699 103.609 337.292 103.748 337.856C103.887 338.421 104.2 338.927 104.643 339.302C105.087 339.678 105.637 339.904 106.217 339.949C106.796 339.993 107.375 339.854 107.87 339.55C116.38 334.22 127.06 324.4 127.77 308.47C121.51 299.6 101.22 282.62 101.22 282.62Z" fill="white"/>
<path d="M131.28 315.3L95.08 279.1L114.36 274.93L135.45 296.02L131.28 315.3Z" fill="#C1C1C1"/>
</svg>
