<svg id="facebook-1--media-facebook-social" xmlns="http://www.w3.org/2000/svg" width="16" height="16" viewBox="0 0 16 16">
  <path id="Vector" d="M0,14.769V1.231A1.231,1.231,0,0,1,1.231,0H14.769A1.231,1.231,0,0,1,16,1.231V14.769A1.231,1.231,0,0,1,14.769,16H11.077V10.166h.874a.751.751,0,0,0,.751-.751V8.468a.751.751,0,0,0-.751-.751h-.825V6.56c0-1.034.468-1.034.935-1.034h.6a.677.677,0,0,0,.529-.222.714.714,0,0,0,.222-.529V3.865a.763.763,0,0,0-.739-.788H11.262a2.855,2.855,0,0,0-2.942,3.2v1.44H7.532a.751.751,0,0,0-.763.751v.948a.751.751,0,0,0,.763.751H8.32V16H1.231A1.231,1.231,0,0,1,0,14.769Z" fill="#5c5c62"/>
</svg>
