<svg xmlns="http://www.w3.org/2000/svg" width="16" height="16" viewBox="0 0 16 16">
  <g id="instagram" transform="translate(-0.786 -0.787)">
    <path id="Subtract" d="M4.215.787A3.429,3.429,0,0,0,.786,4.215v9.143a3.429,3.429,0,0,0,3.429,3.429h9.143a3.429,3.429,0,0,0,3.428-3.429V4.215A3.429,3.429,0,0,0,13.358.787ZM14.345,4.22a.988.988,0,1,1-.988-.988A.988.988,0,0,1,14.345,4.22ZM8.787,6.048a2.739,2.739,0,1,0,2.739,2.739A2.739,2.739,0,0,0,8.787,6.048ZM4.731,8.787a4.056,4.056,0,1,1,4.056,4.056A4.056,4.056,0,0,1,4.731,8.787Z" transform="translate(0 0)" fill="#5c5c62" fill-rule="evenodd"/>
  </g>
</svg>
