<svg xmlns="http://www.w3.org/2000/svg" width="16" height="16" viewBox="0 0 16 16">
  <g id="linkedin--network-linkedin-professional" transform="translate(-0.532)">
    <path id="Union" d="M3.255,2.7a1.62,1.62,0,0,0,.457-1.141A1.62,1.62,0,0,0,2.128,0a1.632,1.632,0,0,0-1.6,1.559,1.657,1.657,0,0,0,1.6,1.632A1.62,1.62,0,0,0,3.255,2.7ZM1.832,5.3C1.161,5.28.7,5.269.7,6.091v9.137c0,.8.437.788,1.067.764.114,0,.234-.009.359-.009s.245,0,.359.009c.627.024,1.054.04,1.054-.764V6.091c0-.822-.449-.811-1.117-.8-.095,0-.194,0-.3,0S1.927,5.3,1.832,5.3Zm4.67.017c-.3.061-.5.256-.5.78v9.137c0,.8.419.788,1.049.764.115,0,.236-.009.364-.009s.249,0,.364.009c.634.024,1.061.04,1.061-.764V10.355a1.766,1.766,0,0,1,1.8-1.937,1.754,1.754,0,0,1,1.852,1.9v4.873c0,.8.419.788,1.05.764.115,0,.236-.009.364-.009s.249,0,.364.009c.631.024,1.049.04,1.049-.764V8.954a3.655,3.655,0,0,0-3.874-3.813A3.058,3.058,0,0,0,8.719,6.359c.012-.451-.134-1.048-.5-1.048-.1,0-.266-.005-.449-.011A8.825,8.825,0,0,0,6.5,5.312Z" transform="translate(0)" fill="#5c5c62" fill-rule="evenodd"/>
  </g>
</svg>
