<svg xmlns="http://www.w3.org/2000/svg" width="17.5" height="17.5" viewBox="0 0 17.5 17.5">
    <g id="phone--android-phone-mobile-device-smartphone-iphone" transform="translate(-2.25 -2.25)">
        <path id="Union" d="M19,6.81A3.81,3.81,0,0,0,15.19,3h-.217a1.143,1.143,0,0,0-1.061.718l-.939,2.349a1.524,1.524,0,0,0,.337,1.643l1.172,1.172a.72.72,0,0,1,.19.716A7.636,7.636,0,0,1,9.6,14.672a.72.72,0,0,1-.716-.19L7.711,13.311a1.524,1.524,0,0,0-1.643-.337l-2.349.939A1.143,1.143,0,0,0,3,14.974v.217A3.81,3.81,0,0,0,6.81,19H7A12,12,0,0,0,19,7.327a.006.006,0,0,1,0,0,.007.007,0,0,0,0,0Z" transform="translate(0 0)" fill="none" stroke="#5c5c62" stroke-linejoin="round" stroke-width="1.5"/>
    </g>
</svg>