<svg width="1200" height="900" viewBox="0 0 1200 900" fill="none" xmlns="http://www.w3.org/2000/svg">
<g clip-path="url(#clip0_137_2)">
<rect width="1200" height="900" fill="#18181B"/>
<g clip-path="url(#clip1_137_2)">
<g opacity="0.3" filter="url(#filter0_f_137_2)">
<path d="M612 860.615C851.479 860.615 1045.61 666.479 1045.61 427C1045.61 187.521 851.479 -6.61475 612 -6.61475C372.521 -6.61475 178.385 187.521 178.385 427C178.385 666.479 372.521 860.615 612 860.615Z" fill="#944EFA"/>
<mask id="mask0_137_2" style="mask-type:alpha" maskUnits="userSpaceOnUse" x="178" y="-7" width="868" height="868">
<path d="M612 860.615C851.479 860.615 1045.61 666.479 1045.61 427C1045.61 187.521 851.479 -6.61475 612 -6.61475C372.521 -6.61475 178.385 187.521 178.385 427C178.385 666.479 372.521 860.615 612 860.615Z" fill="#944EFA"/>
</mask>
<g mask="url(#mask0_137_2)">
<g filter="url(#filter1_f_137_2)">
<path d="M650.82 703.474C594.808 735.638 433.207 618.331 375.438 566.11C362.96 726.937 375.438 653.114 527.949 902.67C680.459 1152.23 1254.1 593.491 1262.77 566.11C1271.43 538.728 1156.71 -119.839 910.956 -295.573C665.208 -471.306 825.864 -77.7948 937.817 220.987C1049.77 519.768 720.837 663.266 650.82 703.474Z" fill="#976CE5"/>
</g>
<g filter="url(#filter2_f_137_2)">
<path d="M260.871 615.445C262.521 617.437 264.261 619.507 266.087 621.636C401.528 763.812 843.887 -115.443 821.787 253.358C781.564 924.574 595.335 748.841 530.874 795.226C480.811 831.25 326.734 692.313 266.087 621.636C264.294 619.753 262.554 617.689 260.871 615.445Z" fill="#2735FD"/>
</g>
<g filter="url(#filter3_f_137_2)">
<path d="M381.927 782.694C236.804 936.226 204.254 810.254 206.121 728.077L-242.27 644.031C-317.012 557.164 -325.792 297.226 237.02 -47.5782C940.537 -478.582 1323.52 585.872 1086.05 377.333C848.583 168.797 563.333 590.77 381.927 782.694Z" fill="#2BBFDA"/>
</g>
</g>
</g>
<path fill-rule="evenodd" clip-rule="evenodd" d="M81.7059 87.179H80.9844V87.9004V1025.11H81.7059V989.761H117.059V1025.11H117.78V989.761H153.133V1025.11H153.855V989.761H189.208V1025.11H189.929V989.761H225.282V1025.11H226.004V989.761H261.357V1025.11H262.078V989.761H297.431V1025.11H298.152V989.761H333.506V1025.11H334.228V989.761H369.581V1025.11H370.302V989.761H405.655V1025.11H406.376V989.761H441.729V1025.11H442.451V989.761H477.804V1025.11H478.525V989.761H513.878V1025.11H514.6V989.761H549.953V1025.11H550.674V989.761H586.027V1025.11H586.749V989.761H622.102V1025.11H622.823V989.761H658.176V1025.11H658.897V989.761H694.25V1025.11H694.972V989.761H730.325V1025.11H731.046V989.761H766.399V1025.11H767.12V989.761H802.473V1025.11H803.194V989.761H838.547V1025.11H839.269V989.761H874.622V1025.11H875.343V989.761H910.696V1025.11H911.418V989.761H946.771V1025.11H947.492V989.761H982.845V1025.11H983.567V989.761H1018.92V989.04H983.567V953.687H1018.92V952.965H983.567V917.612H1018.92V916.891H983.567V881.538H1018.92V880.816H983.567V845.463H1018.92V844.742H983.567V809.389H1018.92V808.668H983.567V773.315H1018.92V772.593H983.567V737.24H1018.92V736.519H983.567V701.166H1018.92V700.444H983.567V665.091H1018.92V664.37H983.567V629.017H1018.92V628.295H983.567V592.942H1018.92V592.221H983.567V556.868H1018.92V556.147H983.567V520.794H1018.92V520.073H983.567V484.72H1018.92V483.998H983.567V448.645H1018.92V447.924H983.567V412.571H1018.92V411.85H983.567V376.497H1018.92V375.775H983.567V340.422H1018.92V339.701H983.567V304.348H1018.92V303.626H983.567V268.273H1018.92V267.551H983.567V232.198H1018.92V231.477H983.567V196.124H1018.92V195.402H983.567V160.049H1018.92V159.328H983.567V123.975H1018.92V123.253H983.567V87.9004H1018.92V87.179H983.567H982.845H947.492H946.771H911.418H910.696H875.343H874.622H839.269H838.547H803.194H802.473H767.12H766.399H731.047H730.326H694.972H694.25H658.897H658.176H622.823H622.102H586.749H586.027H550.674H549.953H514.6H513.878H478.525H477.804H442.451H441.729H406.376H405.655H370.302H369.581H334.228H333.506H298.153H297.432H262.078H261.357H226.004H225.282H189.929H189.208H153.855H153.133H117.78H117.059H81.7059ZM81.7059 87.9004V123.253H117.059V87.9004H81.7059ZM117.78 87.9004V123.253H153.133V87.9004H117.78ZM153.855 87.9004V123.253H189.208V87.9004H153.855ZM189.929 87.9004V123.253H225.282V87.9004H189.929ZM226.004 87.9004V123.253H261.357V87.9004H226.004ZM262.078 87.9004V123.253H297.432V87.9004H262.078ZM298.153 87.9004V123.253H333.506V87.9004H298.153ZM334.228 87.9004V123.253H369.581V87.9004H334.228ZM370.302 87.9004V123.253H405.655V87.9004H370.302ZM406.376 87.9004V123.253H441.729V87.9004H406.376ZM442.451 87.9004V123.253H477.804V87.9004H442.451ZM478.525 87.9004V123.253H513.878V87.9004H478.525ZM514.6 87.9004V123.253H549.953V87.9004H514.6ZM550.674 87.9004V123.253H586.027V87.9004H550.674ZM586.749 87.9004V123.253H622.102V87.9004H586.749ZM622.823 87.9004V123.253H658.176V87.9004H622.823ZM658.897 87.9004V123.253H694.25V87.9004H658.897ZM694.972 87.9004V123.253H730.326V87.9004H694.972ZM731.047 87.9004V123.253H766.399V87.9004H731.047ZM767.12 87.9004V123.253H802.473V87.9004H767.12ZM803.194 87.9004V123.253H838.547V87.9004H803.194ZM839.269 87.9004V123.253H874.622V87.9004H839.269ZM875.343 87.9004V123.253H910.696V87.9004H875.343ZM911.418 87.9004V123.253H946.771V87.9004H911.418ZM947.492 87.9004V123.253H982.845V87.9004H947.492ZM982.845 123.975H947.492V159.328H982.845V123.975ZM982.845 160.049H947.492V195.402H982.845V160.049ZM982.845 196.124H947.492V231.477H982.845V196.124ZM982.845 232.198H947.492V267.551H982.845V232.198ZM982.845 268.273H947.492V303.626H982.845V268.273ZM982.845 304.348H947.492V339.701H982.845V304.348ZM982.845 340.422H947.492V375.775H982.845V340.422ZM982.845 376.497H947.492V411.85H982.845V376.497ZM982.845 412.571H947.492V447.924H982.845V412.571ZM982.845 448.645H947.492V483.998H982.845V448.645ZM982.845 484.72H947.492V520.073H982.845V484.72ZM982.845 520.794H947.492V556.147H982.845V520.794ZM982.845 556.868H947.492V592.221H982.845V556.868ZM982.845 592.942H947.492V628.295H982.845V592.942ZM982.845 629.017H947.492V664.37H982.845V629.017ZM982.845 665.091H947.492V700.444H982.845V665.091ZM982.845 701.166H947.492V736.519H982.845V701.166ZM982.845 737.24H947.492V772.593H982.845V737.24ZM982.845 773.315H947.492V808.668H982.845V773.315ZM982.845 809.389H947.492V844.742H982.845V809.389ZM982.845 845.463H947.492V880.816H982.845V845.463ZM982.845 881.538H947.492V916.891H982.845V881.538ZM982.845 917.612H947.492V952.965H982.845V917.612ZM982.845 953.687H947.492V989.04H982.845V953.687ZM946.771 989.04V953.687H911.418V989.04H946.771ZM910.696 989.04V953.687H875.343V989.04H910.696ZM874.622 989.04V953.687H839.269V989.04H874.622ZM838.547 989.04V953.687H803.194V989.04H838.547ZM802.473 989.04V953.687H767.12V989.04H802.473ZM766.399 989.04V953.687H731.046V989.04H766.399ZM730.325 989.04V953.687H694.972V989.04H730.325ZM694.25 989.04V953.687H658.897V989.04H694.25ZM658.176 989.04V953.687H622.823V989.04H658.176ZM622.102 989.04V953.687H586.749V989.04H622.102ZM586.027 989.04V953.687H550.674V989.04H586.027ZM549.953 989.04V953.687H514.6V989.04H549.953ZM513.878 989.04V953.687H478.525V989.04H513.878ZM477.804 989.04V953.687H442.451V989.04H477.804ZM441.729 989.04V953.687H406.376V989.04H441.729ZM405.655 989.04V953.687H370.302V989.04H405.655ZM369.581 989.04V953.687H334.228V989.04H369.581ZM333.506 989.04V953.687H298.152V989.04H333.506ZM297.431 989.04V953.687H262.078V989.04H297.431ZM261.357 989.04V953.687H226.004V989.04H261.357ZM225.282 989.04V953.687H189.929V989.04H225.282ZM189.208 989.04V953.687H153.855V989.04H189.208ZM153.133 989.04V953.687H117.78V989.04H153.133ZM117.059 989.04V953.687H81.7059V989.04H117.059ZM81.7059 952.965H117.059V917.612H81.7059V952.965ZM81.7059 916.891H117.059V881.538H81.7059V916.891ZM81.7059 880.816H117.059V845.463H81.7059V880.816ZM81.7059 844.742H117.059V809.389H81.7059V844.742ZM81.7059 808.668H117.059V773.315H81.7059V808.668ZM81.7059 772.593H117.059V737.24H81.7059V772.593ZM81.7059 736.519H117.059V701.166H81.7059V736.519ZM81.7059 700.444H117.059V665.091H81.7059V700.444ZM81.7059 664.37H117.059V629.017H81.7059V664.37ZM81.7059 628.295H117.059V592.942H81.7059V628.295ZM81.7059 592.221H117.059V556.868H81.7059V592.221ZM81.7059 556.147H117.059V520.794H81.7059L81.7059 556.147ZM81.7059 520.073H117.059V484.72H81.7059V520.073ZM81.7059 483.998H117.059V448.645H81.7059V483.998ZM81.7059 447.924H117.059V412.571H81.7059V447.924ZM81.7059 411.85H117.059V376.497H81.7059V411.85ZM81.7059 375.775H117.059V340.422H81.7059V375.775ZM81.7059 339.701H117.059V304.347H81.7059V339.701ZM81.7059 303.626H117.059V268.273H81.7059V303.626ZM81.7059 267.551H117.059V232.198H81.7059V267.551ZM81.7059 231.477H117.059V196.124H81.7059V231.477ZM81.7059 195.402H117.059V160.049H81.7059V195.402ZM81.7059 159.328H117.059V123.975H81.7059V159.328ZM117.78 123.975V159.328H153.133V123.975H117.78ZM153.855 123.975V159.328H189.208V123.975H153.855ZM189.929 123.975V159.328H225.282V123.975H189.929ZM226.004 123.975V159.328H261.357V123.975H226.004ZM262.078 123.975V159.328H297.432V123.975H262.078ZM298.153 123.975V159.328H333.506V123.975H298.153ZM334.228 123.975V159.328H369.581V123.975H334.228ZM370.302 123.975V159.328H405.655V123.975H370.302ZM406.376 123.975V159.328H441.729V123.975H406.376ZM442.451 123.975V159.328H477.804V123.975H442.451ZM478.525 123.975V159.328H513.878V123.975H478.525ZM514.6 123.975V159.328H549.953V123.975H514.6ZM550.674 123.975V159.328H586.027V123.975H550.674ZM586.749 123.975V159.328H622.102V123.975H586.749ZM622.823 123.975V159.328H658.176V123.975H622.823ZM658.897 123.975V159.328H694.25V123.975H658.897ZM694.972 123.975V159.328H730.326V123.975H694.972ZM731.047 123.975V159.328H766.399V123.975H731.047ZM767.12 123.975V159.328H802.473V123.975H767.12ZM803.194 123.975V159.328H838.547V123.975H803.194ZM839.269 123.975V159.328H874.622V123.975H839.269ZM875.343 123.975V159.328H910.696V123.975H875.343ZM911.418 123.975V159.328H946.771V123.975H911.418ZM946.771 160.049H911.418V195.402H946.771V160.049ZM946.771 196.124H911.418V231.477H946.771V196.124ZM946.771 232.198H911.418V267.551H946.771V232.198ZM946.771 268.273H911.418V303.626H946.771V268.273ZM946.771 304.348H911.418V339.701H946.771V304.348ZM946.771 340.422H911.418V375.775H946.771V340.422ZM946.771 376.497H911.418V411.85H946.771V376.497ZM946.771 412.571H911.418V447.924H946.771V412.571ZM946.771 448.645H911.418V483.998H946.771V448.645ZM946.771 484.72H911.418V520.073H946.771V484.72ZM946.771 520.794H911.418V556.147H946.771V520.794ZM946.771 556.868H911.418V592.221H946.771V556.868ZM946.771 592.942H911.418V628.295H946.771V592.942ZM946.771 629.017H911.418V664.37H946.771V629.017ZM946.771 665.091H911.418V700.444H946.771V665.091ZM946.771 701.166H911.418V736.519H946.771V701.166ZM946.771 737.24H911.418V772.593H946.771V737.24ZM946.771 773.315H911.418V808.668H946.771V773.315ZM946.771 809.389H911.418V844.742H946.771V809.389ZM946.771 845.463H911.418V880.816H946.771V845.463ZM946.771 881.538H911.418V916.891H946.771V881.538ZM946.771 917.612H911.418V952.965H946.771V917.612ZM910.696 952.965V917.612H875.343V952.965H910.696ZM874.622 952.965V917.612H839.269V952.965H874.622ZM838.547 952.965V917.612H803.194V952.965H838.547ZM802.473 952.965V917.612H767.12V952.965H802.473ZM766.399 952.965V917.612H731.046V952.965H766.399ZM730.325 952.965V917.612H694.972V952.965H730.325ZM694.25 952.965V917.612H658.897V952.965H694.25ZM658.176 952.965V917.612H622.823V952.965H658.176ZM622.102 952.965V917.612H586.749V952.965H622.102ZM586.027 952.965V917.612H550.674V952.965H586.027ZM549.953 952.965V917.612H514.6V952.965H549.953ZM513.878 952.965V917.612H478.525V952.965H513.878ZM477.804 952.965V917.612H442.451V952.965H477.804ZM441.729 952.965V917.612H406.376V952.965H441.729ZM405.655 952.965V917.612H370.302V952.965H405.655ZM369.581 952.965V917.612H334.228V952.965H369.581ZM333.506 952.965V917.612H298.152V952.965H333.506ZM297.431 952.965V917.612H262.078V952.965H297.431ZM261.357 952.965V917.612H226.004V952.965H261.357ZM225.282 952.965V917.612H189.929V952.965H225.282ZM189.208 952.965V917.612H153.855V952.965H189.208ZM153.133 952.965V917.612H117.78V952.965H153.133ZM117.78 916.891H153.133V881.538H117.78V916.891ZM117.78 880.816H153.133V845.463H117.78V880.816ZM117.78 844.742H153.133V809.389H117.78V844.742ZM117.78 808.668H153.133V773.315H117.78V808.668ZM117.78 772.593H153.133V737.24H117.78V772.593ZM117.78 736.519H153.133V701.166H117.78V736.519ZM117.78 700.444H153.133V665.091H117.78V700.444ZM117.78 664.37H153.133V629.017H117.78V664.37ZM117.78 628.295H153.133V592.942H117.78V628.295ZM117.78 592.221H153.133V556.868H117.78V592.221ZM117.78 556.147H153.133V520.794H117.78V556.147ZM117.78 520.073H153.133V484.72H117.78V520.073ZM117.78 483.998H153.133V448.645H117.78V483.998ZM117.78 447.924H153.133V412.571H117.78V447.924ZM117.78 411.85H153.133V376.497H117.78V411.85ZM117.78 375.775H153.133V340.422H117.78V375.775ZM117.78 339.701H153.133V304.347H117.78V339.701ZM117.78 303.626H153.133V268.273H117.78V303.626ZM117.78 267.551H153.133V232.198H117.78V267.551ZM117.78 231.477H153.133V196.124H117.78V231.477ZM117.78 195.402H153.133V160.049H117.78V195.402ZM153.855 160.049V195.402H189.208V160.049H153.855ZM189.929 160.049V195.402H225.282V160.049H189.929ZM226.004 160.049V195.402H261.357V160.049H226.004ZM262.078 160.049V195.402H297.432V160.049H262.078ZM298.153 160.049V195.402H333.506V160.049H298.153ZM334.228 160.049V195.402H369.581V160.049H334.228ZM370.302 160.049V195.402H405.655V160.049H370.302ZM406.376 160.049V195.402H441.729V160.049H406.376ZM442.451 160.049V195.402H477.804V160.049H442.451ZM478.525 160.049V195.402H513.878V160.049H478.525ZM514.6 160.049V195.402H549.953V160.049H514.6ZM550.674 160.049V195.402H586.027V160.049H550.674ZM586.749 160.049V195.402H622.102V160.049H586.749ZM622.823 160.049V195.402H658.176V160.049H622.823ZM658.897 160.049V195.402H694.25V160.049H658.897ZM694.972 160.049V195.402H730.326V160.049H694.972ZM731.047 160.049V195.402H766.399V160.049H731.047ZM767.12 160.049V195.402H802.473V160.049H767.12ZM803.194 160.049V195.402H838.547V160.049H803.194ZM839.269 160.049V195.402H874.622V160.049H839.269ZM875.343 160.049V195.402H910.696V160.049H875.343ZM910.696 196.124H875.343V231.477H910.696V196.124ZM910.696 232.198H875.343V267.551H910.696V232.198ZM910.696 268.273H875.343V303.626H910.696V268.273ZM910.696 304.348H875.343V339.701H910.696V304.348ZM910.696 340.422H875.343V375.775H910.696V340.422ZM910.696 376.497H875.343V411.85H910.696V376.497ZM910.696 412.571H875.343V447.924H910.696V412.571ZM910.696 448.645H875.343V483.998H910.696V448.645ZM910.696 484.72H875.343V520.073H910.696V484.72ZM910.696 520.794H875.343V556.147H910.696V520.794ZM910.696 556.868H875.343V592.221H910.696V556.868ZM910.696 592.942H875.343V628.295H910.696V592.942ZM910.696 629.017H875.343V664.37H910.696V629.017ZM910.696 665.091H875.343V700.444H910.696V665.091ZM910.696 701.166H875.343V736.519H910.696V701.166ZM910.696 737.24H875.343V772.593H910.696V737.24ZM910.696 773.315H875.343V808.668H910.696V773.315ZM910.696 809.389H875.343V844.742H910.696V809.389ZM910.696 845.463H875.343V880.816H910.696V845.463ZM910.696 881.538H875.343V916.891H910.696V881.538ZM874.622 916.891V881.538H839.269V916.891H874.622ZM838.547 916.891V881.538H803.194V916.891H838.547ZM802.473 916.891V881.538H767.12V916.891H802.473ZM766.399 916.891V881.538H731.046V916.891H766.399ZM730.325 916.891V881.538H694.972V916.891H730.325ZM694.25 916.891V881.538H658.897V916.891H694.25ZM658.176 916.891V881.538H622.823V916.891H658.176ZM622.102 916.891V881.538H586.749V916.891H622.102ZM586.027 916.891V881.538H550.674V916.891H586.027ZM549.953 916.891V881.538H514.6V916.891H549.953ZM513.878 916.891V881.538H478.525V916.891H513.878ZM477.804 916.891V881.538H442.451V916.891H477.804ZM441.729 916.891V881.538H406.376V916.891H441.729ZM405.655 916.891V881.538H370.302V916.891H405.655ZM369.581 916.891V881.538H334.228V916.891H369.581ZM333.506 916.891V881.538H298.152V916.891H333.506ZM297.431 916.891V881.538H262.078V916.891H297.431ZM261.357 916.891V881.538H226.004V916.891H261.357ZM225.282 916.891V881.538H189.929V916.891H225.282ZM189.208 916.891V881.538H153.855V916.891H189.208ZM153.855 880.816H189.208V845.463H153.855V880.816ZM153.855 844.742H189.208V809.389H153.855V844.742ZM153.855 808.668H189.208V773.315H153.855V808.668ZM153.855 772.593H189.208V737.24H153.855V772.593ZM153.855 736.519H189.208V701.166H153.855V736.519ZM153.855 700.444H189.208V665.091H153.855V700.444ZM153.855 664.37H189.208V629.017H153.855V664.37ZM153.855 628.295H189.208V592.942H153.855V628.295ZM153.855 592.221H189.208V556.868H153.855V592.221ZM153.855 556.147H189.208V520.794H153.855V556.147ZM153.855 520.073H189.208V484.72H153.855V520.073ZM153.855 483.998H189.208V448.645H153.855V483.998ZM153.855 447.924H189.208V412.571H153.855V447.924ZM153.855 411.85H189.208V376.497H153.855V411.85ZM153.855 375.775H189.208V340.422H153.855V375.775ZM153.855 339.701H189.208V304.347H153.855V339.701ZM153.855 303.626H189.208V268.273H153.855V303.626ZM153.855 267.551H189.208V232.198H153.855V267.551ZM153.855 231.477H189.208V196.124H153.855V231.477ZM189.929 196.124V231.477H225.282V196.124H189.929ZM226.004 196.124V231.477H261.357V196.124H226.004ZM262.078 196.124V231.477H297.432V196.124H262.078ZM298.153 196.124V231.477H333.506V196.124H298.153ZM334.228 196.124V231.477H369.581V196.124H334.228ZM370.302 196.124V231.477H405.655V196.124H370.302ZM406.376 196.124V231.477H441.729V196.124H406.376ZM442.451 196.124V231.477H477.804V196.124H442.451ZM478.525 196.124V231.477H513.878V196.124H478.525ZM514.6 196.124V231.477H549.953V196.124H514.6ZM550.674 196.124V231.477H586.027V196.124H550.674ZM586.749 196.124V231.477H622.102V196.124H586.749ZM622.823 196.124V231.477H658.176V196.124H622.823ZM658.897 196.124V231.477H694.25V196.124H658.897ZM694.972 196.124V231.477H730.326V196.124H694.972ZM731.047 196.124V231.477H766.399V196.124H731.047ZM767.12 196.124V231.477H802.473V196.124H767.12ZM803.194 196.124V231.477H838.547V196.124H803.194ZM839.269 196.124V231.477H874.622V196.124H839.269ZM874.622 232.198H839.269V267.551H874.622V232.198ZM874.622 268.273H839.269V303.626H874.622V268.273ZM874.622 304.348H839.269V339.701H874.622V304.348ZM874.622 340.422H839.269V375.775H874.622V340.422ZM874.622 376.497H839.269V411.85H874.622V376.497ZM874.622 412.571H839.269V447.924H874.622V412.571ZM874.622 448.645H839.269V483.998H874.622V448.645ZM874.622 484.72H839.269V520.073H874.622V484.72ZM874.622 520.794H839.269V556.147H874.622V520.794ZM874.622 556.868H839.269V592.221H874.622V556.868ZM874.622 592.942H839.269V628.295H874.622V592.942ZM874.622 629.017H839.269V664.37H874.622V629.017ZM874.622 665.091H839.269V700.444H874.622V665.091ZM874.622 701.166H839.269V736.519H874.622V701.166ZM874.622 737.24H839.269V772.593H874.622V737.24ZM874.622 773.315H839.269V808.668H874.622V773.315ZM874.622 809.389H839.269V844.742H874.622V809.389ZM874.622 845.463H839.269V880.816H874.622V845.463ZM838.547 880.816V845.463H803.194V880.816H838.547ZM802.473 880.816V845.463H767.12V880.816H802.473ZM766.399 880.816V845.463H731.046V880.816H766.399ZM730.325 880.816V845.463H694.972V880.816H730.325ZM694.25 880.816V845.463H658.897V880.816H694.25ZM658.176 880.816V845.463H622.823V880.816H658.176ZM622.102 880.816V845.463H586.749V880.816H622.102ZM586.027 880.816V845.463H550.674V880.816H586.027ZM549.953 880.816V845.463H514.6V880.816H549.953ZM513.878 880.816V845.463H478.525V880.816H513.878ZM477.804 880.816V845.463H442.451V880.816H477.804ZM441.729 880.816V845.463H406.376V880.816H441.729ZM405.655 880.816V845.463H370.302V880.816H405.655ZM369.581 880.816V845.463H334.228V880.816H369.581ZM333.506 880.816V845.463H298.152V880.816H333.506ZM297.431 880.816V845.463H262.078V880.816H297.431ZM261.357 880.816V845.463H226.004V880.816H261.357ZM225.282 880.816V845.463H189.929V880.816H225.282ZM189.929 844.742H225.282V809.389H189.929V844.742ZM189.929 808.668H225.282V773.315H189.929V808.668ZM189.929 772.593H225.282V737.24H189.929V772.593ZM189.929 736.519H225.282V701.166H189.929V736.519ZM189.929 700.444H225.282V665.091H189.929V700.444ZM189.929 664.37H225.282V629.017H189.929V664.37ZM189.929 628.295H225.282V592.942H189.929V628.295ZM189.929 592.221H225.282V556.868H189.929V592.221ZM189.929 556.147H225.282V520.794H189.929V556.147ZM189.929 520.073H225.282V484.72H189.929V520.073ZM189.929 483.998H225.282V448.645H189.929V483.998ZM189.929 447.924H225.282V412.571H189.929V447.924ZM189.929 411.85H225.282V376.497H189.929V411.85ZM189.929 375.775H225.282V340.422H189.929V375.775ZM189.929 339.701H225.282V304.347H189.929V339.701ZM189.929 303.626H225.282V268.273H189.929V303.626ZM189.929 267.551H225.282V232.198H189.929V267.551ZM226.004 232.198V267.551H261.357V232.198H226.004ZM262.078 232.198V267.551H297.432V232.198H262.078ZM298.153 232.198V267.551H333.506V232.198H298.153ZM334.228 232.198V267.551H369.581V232.198H334.228ZM370.302 232.198V267.551H405.655V232.198H370.302ZM406.376 232.198V267.551H441.729V232.198H406.376ZM442.451 232.198V267.551H477.804V232.198H442.451ZM478.525 232.198V267.551H513.878V232.198H478.525ZM514.6 232.198V267.551H549.953V232.198H514.6ZM550.674 232.198V267.551H586.027V232.198H550.674ZM586.749 232.198V267.551H622.102V232.198H586.749ZM622.823 232.198V267.551H658.176V232.198H622.823ZM658.897 232.198V267.551H694.25V232.198H658.897ZM694.972 232.198V267.551H730.326V232.198H694.972ZM731.047 232.198V267.551H766.399V232.198H731.047ZM767.12 232.198V267.551H802.473V232.198H767.12ZM803.194 232.198V267.551H838.547V232.198H803.194ZM838.547 268.273H803.194V303.626H838.547V268.273ZM838.547 304.348H803.194V339.701H838.547V304.348ZM838.547 340.422H803.194V375.775H838.547V340.422ZM838.547 376.497H803.194V411.85H838.547V376.497ZM838.547 412.571H803.194V447.924H838.547V412.571ZM838.547 448.645H803.194V483.998H838.547V448.645ZM838.547 484.72H803.194V520.073H838.547V484.72ZM838.547 520.794H803.194V556.147H838.547V520.794ZM838.547 556.868H803.194V592.221H838.547V556.868ZM838.547 592.942H803.194V628.295H838.547V592.942ZM838.547 629.017H803.194V664.37H838.547V629.017ZM838.547 665.091H803.194V700.444H838.547V665.091ZM838.547 701.166H803.194V736.519H838.547V701.166ZM838.547 737.24H803.194V772.593H838.547V737.24ZM838.547 773.315H803.194V808.668H838.547V773.315ZM838.547 809.389H803.194V844.742H838.547V809.389ZM802.473 844.742V809.389H767.12V844.742H802.473ZM766.399 844.742V809.389H731.046V844.742H766.399ZM730.325 844.742V809.389H694.972V844.742H730.325ZM694.25 844.742V809.389H658.897V844.742H694.25ZM658.176 844.742V809.389H622.823V844.742H658.176ZM622.102 844.742V809.389H586.749V844.742H622.102ZM586.027 844.742V809.389H550.674V844.742H586.027ZM549.953 844.742V809.389H514.6V844.742H549.953ZM513.878 844.742V809.389H478.525V844.742H513.878ZM477.804 844.742V809.389H442.451V844.742H477.804ZM441.729 844.742V809.389H406.376V844.742H441.729ZM405.655 844.742V809.389H370.302V844.742H405.655ZM369.581 844.742V809.389H334.228V844.742H369.581ZM333.506 844.742V809.389H298.152V844.742H333.506ZM297.431 844.742V809.389H262.078V844.742H297.431ZM261.357 844.742V809.389H226.004V844.742H261.357ZM226.004 808.668H261.357V773.315H226.004V808.668ZM226.004 772.593H261.357V737.24H226.004V772.593ZM226.004 736.519H261.357V701.166H226.004V736.519ZM226.004 700.444H261.357V665.091H226.004V700.444ZM226.004 664.37H261.357V629.017H226.004V664.37ZM226.004 628.295H261.357V592.942H226.004V628.295ZM226.004 592.221H261.357V556.868H226.004V592.221ZM226.004 556.147H261.357V520.794H226.004V556.147ZM226.004 520.073H261.357V484.72H226.004V520.073ZM226.004 483.998H261.357V448.645H226.004V483.998ZM226.004 447.924H261.357V412.571H226.004V447.924ZM226.004 411.85H261.357V376.497H226.004V411.85ZM226.004 375.775H261.357V340.422H226.004V375.775ZM226.004 339.701H261.357V304.347H226.004V339.701ZM226.004 303.626H261.357V268.273H226.004V303.626ZM262.078 268.273V303.626H297.432V268.273H262.078ZM298.153 268.273V303.626H333.506V268.273H298.153ZM334.228 268.273V303.626H369.581V268.273H334.228ZM370.302 268.273V303.626H405.655V268.273H370.302ZM406.376 268.273V303.626H441.729V268.273H406.376ZM442.451 268.273V303.626H477.804V268.273H442.451ZM478.525 268.273V303.626H513.878V268.273H478.525ZM514.6 268.273V303.626L549.953 303.626V268.273H514.6ZM550.674 268.273V303.626H586.027V268.273H550.674ZM586.749 268.273V303.626H622.102V268.273H586.749ZM622.823 268.273V303.626H658.176V268.273H622.823ZM658.897 268.273V303.626H694.25V268.273H658.897ZM694.972 268.273V303.626H730.326V268.273H694.972ZM731.047 268.273V303.626H766.399V268.273H731.047ZM767.12 268.273V303.626H802.473V268.273H767.12ZM802.473 304.348H767.12V339.701H802.473V304.348ZM802.473 340.422H767.12V375.775H802.473V340.422ZM802.473 376.497H767.12V411.85H802.473V376.497ZM802.473 412.571H767.12V447.924H802.473V412.571ZM802.473 448.645H767.12V483.998H802.473V448.645ZM802.473 484.72H767.12V520.073H802.473V484.72ZM802.473 520.794H767.12V556.147H802.473V520.794ZM802.473 556.868H767.12V592.221H802.473V556.868ZM802.473 592.942H767.12V628.295H802.473V592.942ZM802.473 629.017H767.12V664.37H802.473V629.017ZM802.473 665.091H767.12V700.444H802.473V665.091ZM802.473 701.166H767.12V736.519H802.473V701.166ZM802.473 737.24H767.12V772.593H802.473V737.24ZM802.473 773.315H767.12V808.668H802.473V773.315ZM766.399 808.668V773.315H731.046V808.668H766.399ZM730.325 808.668V773.315H694.972V808.668H730.325ZM694.25 808.668V773.315H658.897V808.668H694.25ZM658.176 808.668V773.315H622.823V808.668H658.176ZM622.102 808.668V773.315H586.749V808.668H622.102ZM586.027 808.668V773.315H550.674V808.668H586.027ZM549.953 808.668V773.315H514.6V808.668H549.953ZM513.878 808.668V773.315H478.525V808.668H513.878ZM477.804 808.668V773.315H442.451V808.668H477.804ZM441.729 808.668V773.315H406.376V808.668H441.729ZM405.655 808.668V773.315H370.302V808.668H405.655ZM369.581 808.668V773.315H334.228V808.668H369.581ZM333.506 808.668V773.315H298.152V808.668H333.506ZM297.431 808.668V773.315H262.078V808.668H297.431ZM262.078 772.593H297.431V737.24H262.078V772.593ZM262.078 736.519H297.431V701.166H262.078V736.519ZM262.078 700.444H297.431V665.091H262.078V700.444ZM262.078 664.37H297.431V629.017H262.078V664.37ZM262.078 628.295H297.431V592.942H262.078V628.295ZM262.078 592.221H297.431V556.868H262.078V592.221ZM262.078 556.147H297.431L297.432 520.794H262.078V556.147ZM262.078 520.073H297.432V484.72H262.078V520.073ZM262.078 483.998H297.432V448.645H262.078V483.998ZM262.078 447.924H297.432V412.571H262.078V447.924ZM262.078 411.85H297.432V376.497H262.078V411.85ZM262.078 375.775H297.432V340.422H262.078V375.775ZM262.078 339.701H297.432V304.347H262.078V339.701ZM298.153 304.347V339.701H333.506V304.347H298.153ZM334.228 304.347V339.701H369.581V304.347H334.228ZM370.302 304.347V339.701H405.655V304.347H370.302ZM406.376 304.347V339.701H441.729V304.347H406.376ZM442.451 304.347V339.701H477.804V304.347H442.451ZM478.525 304.347V339.701H513.878V304.347H478.525ZM514.6 304.347V339.701H549.953V304.348L514.6 304.347ZM550.674 304.348V339.701H586.027V304.348H550.674ZM586.749 304.348V339.701H622.102V304.348H586.749ZM622.823 304.348V339.701H658.176V304.348H622.823ZM658.897 304.348V339.701H694.25V304.348H658.897ZM694.972 304.348V339.701H730.326V304.348H694.972ZM731.047 304.348V339.701H766.399V304.348H731.047ZM766.399 340.422H731.047V375.775H766.399V340.422ZM766.399 376.497H731.047V411.85H766.399V376.497ZM766.399 412.571H731.047V447.924H766.399V412.571ZM766.399 448.645H731.047V483.998H766.399V448.645ZM766.399 484.72H731.047V520.073H766.399V484.72ZM766.399 520.794H731.047L731.046 556.147H766.399V520.794ZM766.399 556.868H731.046V592.221H766.399V556.868ZM766.399 592.942H731.046V628.295H766.399V592.942ZM766.399 629.017H731.046V664.37H766.399V629.017ZM766.399 665.091H731.046V700.444H766.399V665.091ZM766.399 701.166H731.046V736.519H766.399V701.166ZM766.399 737.24H731.046V772.593H766.399V737.24ZM730.325 772.593V737.24H694.972V772.593H730.325ZM694.25 772.593V737.24H658.897V772.593H694.25ZM658.176 772.593V737.24H622.823V772.593H658.176ZM622.102 772.593V737.24H586.749V772.593H622.102ZM586.027 772.593V737.24H550.674V772.593H586.027ZM549.953 772.593V737.24H514.6V772.593H549.953ZM513.878 772.593V737.24H478.525V772.593H513.878ZM477.804 772.593V737.24H442.451V772.593H477.804ZM441.729 772.593V737.24H406.376V772.593H441.729ZM405.655 772.593V737.24H370.302V772.593H405.655ZM369.581 772.593V737.24H334.228V772.593H369.581ZM333.506 772.593V737.24H298.152V772.593H333.506ZM298.152 736.519H333.506V701.166H298.152V736.519ZM298.152 700.444H333.506V665.091H298.152V700.444ZM298.152 664.37H333.506V629.017H298.152V664.37ZM298.152 628.295H333.506V592.942H298.152V628.295ZM298.152 592.221H333.506V556.868H298.152V592.221ZM298.152 556.147H333.506V520.794H298.153L298.152 556.147ZM298.153 520.073H333.506V484.72H298.153V520.073ZM298.153 483.998H333.506V448.645H298.153V483.998ZM298.153 447.924H333.506V412.571H298.153V447.924ZM298.153 411.85H333.506V376.497H298.153V411.85ZM298.153 375.775H333.506V340.422H298.153V375.775ZM334.228 340.422V375.775H369.581V340.422H334.228ZM370.302 340.422V375.775H405.655V340.422H370.302ZM406.376 340.422V375.775H441.729V340.422H406.376ZM442.451 340.422V375.775H477.804V340.422H442.451ZM478.525 340.422V375.775H513.878V340.422H478.525ZM514.6 340.422V375.775H549.953V340.422H514.6ZM550.674 340.422V375.775H586.027V340.422H550.674ZM586.749 340.422V375.775H622.102V340.422H586.749ZM622.823 340.422V375.775H658.176V340.422H622.823ZM658.897 340.422V375.775H694.25V340.422H658.897ZM694.972 340.422V375.775H730.326V340.422H694.972ZM730.326 376.497H694.972V411.85H730.326V376.497ZM730.326 412.571H694.972V447.924H730.326V412.571ZM730.326 448.645H694.972V483.998H730.326V448.645ZM730.326 484.72H694.972V520.073H730.326V484.72ZM730.326 520.794H694.972V556.147H730.325L730.326 520.794ZM730.325 556.868H694.972V592.221H730.325V556.868ZM730.325 592.942H694.972V628.295H730.325V592.942ZM730.325 629.017H694.972V664.37H730.325V629.017ZM730.325 665.091H694.972V700.444H730.325V665.091ZM730.325 701.166H694.972V736.519H730.325V701.166ZM694.25 736.519V701.166H658.897V736.519H694.25ZM658.176 736.519V701.166H622.823V736.519H658.176ZM622.102 736.519V701.166H586.749V736.519H622.102ZM586.027 736.519V701.166H550.674V736.519H586.027ZM549.953 736.519V701.166H514.6V736.519H549.953ZM513.878 736.519V701.166H478.525V736.519H513.878ZM477.804 736.519V701.166H442.451V736.519H477.804ZM441.729 736.519V701.166H406.376V736.519H441.729ZM405.655 736.519V701.166H370.302V736.519H405.655ZM369.581 736.519V701.166H334.228V736.519H369.581ZM334.228 700.444H369.581V665.091H334.228V700.444ZM334.228 664.37H369.581V629.017H334.228V664.37ZM334.228 628.295H369.581V592.942H334.228V628.295ZM334.228 592.221H369.581V556.868H334.228V592.221ZM334.228 556.147H369.581V520.794H334.228V556.147ZM334.228 520.073H369.581V484.72H334.228V520.073ZM334.228 483.998H369.581V448.645H334.228V483.998ZM334.228 447.924H369.581V412.571H334.228V447.924ZM334.228 411.85H369.581V376.497H334.228V411.85ZM370.302 376.497V411.85H405.655V376.497H370.302ZM406.376 376.497V411.85H441.729V376.497H406.376ZM442.451 376.497V411.85H477.804V376.497H442.451ZM478.525 376.497V411.85H513.878V376.497H478.525ZM514.6 376.497V411.85H549.953V376.497H514.6ZM550.674 376.497V411.85H586.027V376.497H550.674ZM586.749 376.497V411.85H622.102V376.497H586.749ZM622.823 376.497V411.85H658.176V376.497H622.823ZM658.897 376.497V411.85H694.25V376.497H658.897ZM694.25 412.571H658.897V447.924H694.25V412.571ZM694.25 448.645H658.897V483.998H694.25V448.645ZM694.25 484.72H658.897V520.073H694.25V484.72ZM694.25 520.794H658.897V556.147H694.25V520.794ZM694.25 556.868H658.897V592.221H694.25V556.868ZM694.25 592.942H658.897V628.295H694.25V592.942ZM694.25 629.017H658.897V664.37H694.25V629.017ZM694.25 665.091H658.897V700.444H694.25V665.091ZM658.176 700.444V665.091H622.823V700.444H658.176ZM622.102 700.444V665.091H586.749V700.444H622.102ZM586.027 700.444V665.091H550.674V700.444H586.027ZM549.953 700.444V665.091H514.6V700.444H549.953ZM513.878 700.444V665.091H478.525V700.444H513.878ZM477.804 700.444V665.091H442.451V700.444H477.804ZM441.729 700.444V665.091H406.376V700.444H441.729ZM405.655 700.444V665.091H370.302V700.444H405.655ZM370.302 664.37H405.655V629.017H370.302V664.37ZM370.302 628.295H405.655V592.942H370.302V628.295ZM370.302 592.221H405.655V556.868H370.302V592.221ZM370.302 556.147H405.655V520.794H370.302V556.147ZM370.302 520.073H405.655V484.72H370.302V520.073ZM370.302 483.998H405.655V448.645H370.302V483.998ZM370.302 447.924H405.655V412.571H370.302V447.924ZM406.376 412.571V447.924H441.729V412.571H406.376ZM442.451 412.571V447.924H477.804V412.571H442.451ZM478.525 412.571V447.924H513.878V412.571H478.525ZM514.6 412.571V447.924H549.953V412.571H514.6ZM550.674 412.571V447.924H586.027V412.571H550.674ZM586.749 412.571V447.924H622.102V412.571H586.749ZM622.823 412.571V447.924H658.176V412.571H622.823ZM658.176 448.645H622.823V483.998H658.176V448.645ZM658.176 484.72H622.823V520.073H658.176V484.72ZM658.176 520.794H622.823V556.147H658.176V520.794ZM658.176 556.868H622.823V592.221H658.176V556.868ZM658.176 592.942H622.823V628.295H658.176V592.942ZM658.176 629.017H622.823V664.37H658.176V629.017ZM622.102 664.37V629.017H586.749V664.37H622.102ZM586.027 664.37V629.017H550.674V664.37H586.027ZM549.953 664.37V629.017H514.6V664.37H549.953ZM513.878 664.37V629.017H478.525V664.37H513.878ZM477.804 664.37V629.017H442.451V664.37H477.804ZM441.729 664.37V629.017H406.376V664.37H441.729ZM406.376 628.295H441.729V592.942H406.376V628.295ZM406.376 592.221H441.729V556.868H406.376V592.221ZM406.376 556.147H441.729V520.794H406.376V556.147ZM406.376 520.073H441.729V484.72H406.376V520.073ZM406.376 483.998H441.729V448.645H406.376V483.998ZM442.451 448.645V483.998H477.804V448.645H442.451ZM478.525 448.645V483.998H513.878V448.645H478.525ZM514.6 448.645V483.998H549.953V448.645H514.6ZM550.674 448.645V483.998H586.027V448.645H550.674ZM586.749 448.645V483.998H622.102V448.645H586.749ZM622.102 484.72H586.749V520.073H622.102V484.72ZM622.102 520.794H586.749V556.147H622.102V520.794ZM622.102 556.868H586.749V592.221H622.102V556.868ZM622.102 592.942H586.749V628.295H622.102V592.942ZM586.027 628.295V592.942H550.674V628.295H586.027ZM549.953 628.295V592.942H514.6V628.295H549.953ZM513.878 628.295V592.942H478.525V628.295H513.878ZM477.804 628.295V592.942H442.451V628.295H477.804ZM442.451 592.221H477.804V556.868H442.451V592.221ZM442.451 556.147H477.804V520.794H442.451V556.147ZM442.451 520.073H477.804V484.72H442.451V520.073ZM478.525 484.72V520.073H513.878V484.72H478.525ZM514.6 484.72V520.073H549.953V484.72H514.6ZM550.674 484.72V520.073H586.027V484.72H550.674ZM586.027 520.794H550.674V556.147H586.027V520.794ZM586.027 556.868H550.674V592.221H586.027V556.868ZM549.953 592.221V556.868H514.6V592.221H549.953ZM513.878 592.221V556.868H478.525V592.221H513.878ZM478.525 556.147H513.878V520.794H478.525V556.147ZM514.6 520.794V556.147H549.953V520.794H514.6ZM80.9844 1025.11H1018.92V1025.84H80.9847L80.9844 1025.11ZM1018.92 1025.11V87.179H1019.64V1025.11H1018.92Z" fill="url(#paint0_radial_137_2)" fill-opacity="0.5"/>
</g>
<g clip-path="url(#clip2_137_2)">
<path d="M504.987 428.283C515.965 428.283 530.675 422.674 530.675 404.531C530.675 391.555 521.234 385.617 506.743 380.559C492.143 375.171 484.897 372.202 484.897 364.175C484.897 355.268 491.704 350.649 499.608 350.649C510.146 350.649 518.38 359.666 526.943 376.051H527.162L525.735 350.1C524.308 350.43 522.551 350.649 520.795 350.649C514.318 350.649 510.037 349 500.815 349C489.398 349 474.688 355.598 474.688 372.642C474.688 383.088 479.299 390.346 496.644 396.174C510.695 401.122 520.356 404.971 520.356 413.108C520.356 422.015 514.538 426.633 506.194 426.633C489.618 426.633 481.165 408.709 476.335 397.713H476.115V428.063C478.201 426.853 481.055 425.863 485.776 425.973C491.484 426.083 498.4 428.283 504.987 428.283Z" fill="white"/>
<path d="M504.987 428.283C515.965 428.283 530.675 422.674 530.675 404.531C530.675 391.555 521.234 385.617 506.743 380.559C492.143 375.171 484.897 372.202 484.897 364.175C484.897 355.268 491.704 350.649 499.608 350.649C510.146 350.649 518.38 359.666 526.943 376.051H527.162L525.735 350.1C524.308 350.43 522.551 350.649 520.795 350.649C514.318 350.649 510.037 349 500.815 349C489.398 349 474.688 355.598 474.688 372.642C474.688 383.088 479.299 390.346 496.644 396.174C510.695 401.122 520.356 404.971 520.356 413.108C520.356 422.015 514.538 426.633 506.194 426.633C489.618 426.633 481.165 408.709 476.335 397.713H476.115V428.063C478.201 426.853 481.055 425.863 485.776 425.973C491.484 426.083 498.4 428.283 504.987 428.283Z" fill="white"/>
<path d="M567.231 427.073V426.853C555.156 421.795 554.387 417.286 554.387 408.709V373.631H564.048V372.092H554.387V353.618H554.168C549.008 363.845 539.896 371.982 532.541 372.312V373.631H538.799V406.84C538.799 420.255 538.579 428.502 567.231 427.073Z" fill="white"/>
<path d="M567.231 427.073V426.853C555.156 421.795 554.387 417.286 554.387 408.709V373.631H564.048V372.092H554.387V353.618H554.168C549.008 363.845 539.896 371.982 532.541 372.312V373.631H538.799V406.84C538.799 420.255 538.579 428.502 567.231 427.073Z" fill="white"/>
<path d="M592.261 428.283C604.775 428.283 618.937 418.606 618.937 399.583C618.937 380.009 603.348 371.103 592.041 371.103C579.636 371.103 565.475 380.779 565.475 399.803C565.475 419.376 581.063 428.283 592.261 428.283ZM595.115 426.963C588.528 426.963 581.722 412.228 581.722 393.425C581.722 379.24 585.674 372.422 589.297 372.422C595.993 372.422 602.69 387.157 602.69 405.96C602.69 420.146 598.738 426.963 595.115 426.963Z" fill="white"/>
<path d="M592.261 428.283C604.775 428.283 618.937 418.606 618.937 399.583C618.937 380.009 603.348 371.103 592.041 371.103C579.636 371.103 565.475 380.779 565.475 399.803C565.475 419.376 581.063 428.283 592.261 428.283ZM595.115 426.963C588.528 426.963 581.722 412.228 581.722 393.425C581.722 379.24 585.674 372.422 589.297 372.422C595.993 372.422 602.69 387.157 602.69 405.96C602.69 420.146 598.738 426.963 595.115 426.963Z" fill="white"/>
<path d="M671.521 413.657V380.559C671.521 375.721 668.996 371.432 661.64 371.432C654.615 371.432 647.369 375.061 642.978 377.81V372.092H621.571V372.312C627.17 375.281 627.39 379.679 627.39 385.507V413.657C627.39 419.485 627.17 423.884 621.571 426.853V427.073H647.808V426.853C643.308 424.214 642.978 419.485 642.978 413.657V379.349C646.381 377.15 649.016 376.82 650.992 376.82C654.615 376.82 655.932 380.119 655.932 383.638V413.657C655.932 419.485 655.383 424.214 650.992 426.853V427.073H677.339V426.853C671.74 423.884 671.521 419.485 671.521 413.657Z" fill="white"/>
<path d="M671.521 413.657V380.559C671.521 375.721 668.996 371.432 661.64 371.432C654.615 371.432 647.369 375.061 642.978 377.81V372.092H621.571V372.312C627.17 375.281 627.39 379.679 627.39 385.507V413.657C627.39 419.485 627.17 423.884 621.571 426.853V427.073H647.808V426.853C643.308 424.214 642.978 419.485 642.978 413.657V379.349C646.381 377.15 649.016 376.82 650.992 376.82C654.615 376.82 655.932 380.119 655.932 383.638V413.657C655.932 419.485 655.383 424.214 650.992 426.853V427.073H677.339V426.853C671.74 423.884 671.521 419.485 671.521 413.657Z" fill="white"/>
<path d="M710.492 415.747C703.027 415.747 694.025 410.249 693.476 394.964H726.19C725.312 379.899 715.981 371.103 704.783 371.103C693.147 371.103 679.534 380.559 679.534 399.693C679.534 419.156 692.159 428.063 703.466 428.063C715.102 428.063 722.567 417.726 725.312 408.819L725.092 408.71C720.591 413.108 715.102 415.747 710.492 415.747ZM702.478 372.422C707.528 372.422 711.37 380.889 711.809 393.425H693.476C693.476 378.36 698.855 372.422 702.478 372.422Z" fill="white"/>
<path d="M710.492 415.747C703.027 415.747 694.025 410.249 693.476 394.964H726.19C725.312 379.899 715.981 371.103 704.783 371.103C693.147 371.103 679.534 380.559 679.534 399.693C679.534 419.156 692.159 428.063 703.466 428.063C715.102 428.063 722.567 417.726 725.312 408.819L725.092 408.71C720.591 413.108 715.102 415.747 710.492 415.747ZM702.478 372.422C707.528 372.422 711.37 380.889 711.809 393.425H693.476C693.476 378.36 698.855 372.422 702.478 372.422Z" fill="white"/>
<path d="M485.337 530.877C501.474 530.877 523.21 518.451 523.21 491.841C523.21 465.12 501.803 452.804 485.995 452.804C480.397 452.804 467.553 453.464 461.844 453.464H449V453.684C454.05 455.993 457.233 461.051 457.233 466.879V517.022C457.233 522.85 454.05 527.908 449 530.217V530.437H462.942C469.858 530.437 479.848 530.877 485.337 530.877ZM483.8 529.118C481.055 529.118 476.884 528.898 474.469 528.348V455.003C475.676 454.893 477.433 454.784 478.64 454.784C492.911 454.784 504.328 475.017 504.328 498.109C504.328 520.761 493.899 529.118 483.8 529.118Z" fill="white"/>
<path d="M485.337 530.877C501.474 530.877 523.21 518.451 523.21 491.841C523.21 465.12 501.803 452.804 485.995 452.804C480.397 452.804 467.553 453.464 461.844 453.464H449V453.684C454.05 455.993 457.233 461.051 457.233 466.879V517.022C457.233 522.85 454.05 527.908 449 530.217V530.437H462.942C469.858 530.437 479.848 530.877 485.337 530.877ZM483.8 529.118C481.055 529.118 476.884 528.898 474.469 528.348V455.003C475.676 454.893 477.433 454.784 478.64 454.784C492.911 454.784 504.328 475.017 504.328 498.109C504.328 520.761 493.899 529.118 483.8 529.118Z" fill="white"/>
<path d="M541.214 469.518C546.044 469.518 549.996 465.779 549.996 461.051C549.996 456.433 546.044 452.694 541.214 452.694C536.383 452.694 532.431 456.433 532.431 461.051C532.431 465.779 536.383 469.518 541.214 469.518ZM528.04 530.437H555.265V530.217C549.667 527.248 549.447 522.85 549.447 517.022V475.456H528.04V475.676C533.639 478.645 533.859 483.043 533.859 488.871V517.022C533.859 522.85 533.639 527.248 528.04 530.217V530.437Z" fill="white"/>
<path d="M541.214 469.518C546.044 469.518 549.996 465.779 549.996 461.051C549.996 456.433 546.044 452.694 541.214 452.694C536.383 452.694 532.431 456.433 532.431 461.051C532.431 465.779 536.383 469.518 541.214 469.518ZM528.04 530.437H555.265V530.217C549.667 527.248 549.447 522.85 549.447 517.022V475.456H528.04V475.676C533.639 478.645 533.859 483.043 533.859 488.871V517.022C533.859 522.85 533.639 527.248 528.04 530.217V530.437Z" fill="white"/>
<path d="M599.506 518.451H575.904C572.94 518.451 570.525 518.451 570.525 516.692C570.525 515.152 573.269 513.063 575.904 512.953C577.331 513.173 578.758 513.283 580.075 513.283C591.163 513.283 604.446 506.685 604.446 493.05C604.446 487.882 602.141 483.923 598.628 481.174L608.947 475.676V475.456H580.514C570.415 475.456 558.339 482.933 558.339 494.919C558.339 504.706 565.365 510.314 573.049 512.293C565.475 515.812 558.778 519.991 558.778 524.609C558.778 528.678 562.511 530.217 567.121 530.547C561.084 533.846 556.034 538.244 556.034 543.193C556.034 547.811 559.876 551 568.329 551C589.846 551 609.057 530.217 609.057 523.619C609.057 519.331 604.885 518.451 599.506 518.451ZM579.526 476.776C584.027 476.776 589.187 484.803 589.187 496.459C589.187 505.696 587.211 511.853 583.588 511.853C578.648 511.853 573.818 502.507 573.818 491.181C573.818 480.954 576.672 476.776 579.526 476.776ZM576.123 541.763C567.78 541.763 565.585 539.344 565.585 536.705C565.585 534.066 567.121 532.086 568.878 530.657H569.976H598.847C601.153 530.657 602.141 530.767 602.141 531.976C602.141 535.935 588.089 541.763 576.123 541.763Z" fill="white"/>
<path d="M599.506 518.451H575.904C572.94 518.451 570.525 518.451 570.525 516.692C570.525 515.152 573.269 513.063 575.904 512.953C577.331 513.173 578.758 513.283 580.075 513.283C591.163 513.283 604.446 506.685 604.446 493.05C604.446 487.882 602.141 483.923 598.628 481.174L608.947 475.676V475.456H580.514C570.415 475.456 558.339 482.933 558.339 494.919C558.339 504.706 565.365 510.314 573.049 512.293C565.475 515.812 558.778 519.991 558.778 524.609C558.778 528.678 562.511 530.217 567.121 530.547C561.084 533.846 556.034 538.244 556.034 543.193C556.034 547.811 559.876 551 568.329 551C589.846 551 609.057 530.217 609.057 523.619C609.057 519.331 604.885 518.451 599.506 518.451ZM579.526 476.776C584.027 476.776 589.187 484.803 589.187 496.459C589.187 505.696 587.211 511.853 583.588 511.853C578.648 511.853 573.818 502.507 573.818 491.181C573.818 480.954 576.672 476.776 579.526 476.776ZM576.123 541.763C567.78 541.763 565.585 539.344 565.585 536.705C565.585 534.066 567.121 532.086 568.878 530.657H569.976H598.847C601.153 530.657 602.141 530.767 602.141 531.976C602.141 535.935 588.089 541.763 576.123 541.763Z" fill="white"/>
<path d="M623.987 469.518C628.817 469.518 632.769 465.779 632.769 461.051C632.769 456.433 628.817 452.694 623.987 452.694C619.156 452.694 615.204 456.433 615.204 461.051C615.204 465.779 619.156 469.518 623.987 469.518ZM610.813 530.437H638.038V530.217C632.439 527.248 632.22 522.85 632.22 517.022V475.456H610.813V475.676C616.412 478.645 616.631 483.043 616.631 488.871V517.022C616.631 522.85 616.412 527.248 610.813 530.217V530.437Z" fill="white"/>
<path d="M623.987 469.518C628.817 469.518 632.769 465.779 632.769 461.051C632.769 456.433 628.817 452.694 623.987 452.694C619.156 452.694 615.204 456.433 615.204 461.051C615.204 465.779 619.156 469.518 623.987 469.518ZM610.813 530.437H638.038V530.217C632.439 527.248 632.22 522.85 632.22 517.022V475.456H610.813V475.676C616.412 478.645 616.631 483.043 616.631 488.871V517.022C616.631 522.85 616.412 527.248 610.813 530.217V530.437Z" fill="white"/>
<path d="M673.277 530.437V530.217C661.201 525.159 660.433 520.65 660.433 512.073V476.995H670.093V475.456H660.433V456.982H660.213C655.054 467.209 645.942 475.346 638.587 475.676V476.995H644.844V510.204C644.844 523.619 644.625 531.866 673.277 530.437Z" fill="white"/>
<path d="M673.277 530.437V530.217C661.201 525.159 660.433 520.65 660.433 512.073V476.995H670.093V475.456H660.433V456.982H660.213C655.054 467.209 645.942 475.346 638.587 475.676V476.995H644.844V510.204C644.844 523.619 644.625 531.866 673.277 530.437Z" fill="white"/>
<path d="M716.091 517.022V487.552C716.091 480.624 712.468 474.687 701.6 474.687C695.123 474.687 688.756 475.676 683.816 476.556L674.704 488.762L674.924 488.982C678.876 485.463 688.866 476.446 694.794 476.446C698.965 476.446 701.161 480.295 701.161 484.913C701.161 491.401 697.318 494.37 686.78 500.638C677.229 506.246 672.399 509.764 672.399 517.902C672.399 523.73 676.57 530.987 686.341 530.987C691.281 530.987 697.209 526.808 700.722 523.839V530.437H721.909V530.217C716.31 527.248 716.091 522.85 716.091 517.022ZM694.574 525.599C691.171 525.599 687.109 521.09 687.109 514.383C687.109 503.057 689.854 501.407 700.722 492.5V518.121C700.722 522.85 697.977 525.599 694.574 525.599Z" fill="white"/>
<path d="M716.091 517.022V487.552C716.091 480.624 712.468 474.687 701.6 474.687C695.123 474.687 688.756 475.676 683.816 476.556L674.704 488.762L674.924 488.982C678.876 485.463 688.866 476.446 694.794 476.446C698.965 476.446 701.161 480.295 701.161 484.913C701.161 491.401 697.318 494.37 686.78 500.638C677.229 506.246 672.399 509.764 672.399 517.902C672.399 523.73 676.57 530.987 686.341 530.987C691.281 530.987 697.209 526.808 700.722 523.839V530.437H721.909V530.217C716.31 527.248 716.091 522.85 716.091 517.022ZM694.574 525.599C691.171 525.599 687.109 521.09 687.109 514.383C687.109 503.057 689.854 501.407 700.722 492.5V518.121C700.722 522.85 697.977 525.599 694.574 525.599Z" fill="white"/>
<path d="M723.775 530.437H751V530.217C745.401 527.248 745.182 522.85 745.182 517.022V453.464H723.775V453.684C729.374 456.653 729.593 461.051 729.593 466.879V517.022C729.593 522.85 729.374 527.248 723.775 530.217V530.437Z" fill="white"/>
<path d="M723.775 530.437H751V530.217C745.401 527.248 745.182 522.85 745.182 517.022V453.464H723.775V453.684C729.374 456.653 729.593 461.051 729.593 466.879V517.022C729.593 522.85 729.374 527.248 723.775 530.217V530.437Z" fill="white"/>
</g>
</g>
<defs>
<filter id="filter0_f_137_2" x="-53.6146" y="-238.615" width="1331.23" height="1331.23" filterUnits="userSpaceOnUse" color-interpolation-filters="sRGB">
<feFlood flood-opacity="0" result="BackgroundImageFix"/>
<feBlend mode="normal" in="SourceGraphic" in2="BackgroundImageFix" result="shape"/>
<feGaussianBlur stdDeviation="116" result="effect1_foregroundBlur_137_2"/>
</filter>
<filter id="filter1_f_137_2" x="199.796" y="-511.108" width="1235.43" height="1649.79" filterUnits="userSpaceOnUse" color-interpolation-filters="sRGB">
<feFlood flood-opacity="0" result="BackgroundImageFix"/>
<feBlend mode="normal" in="SourceGraphic" in2="BackgroundImageFix" result="shape"/>
<feGaussianBlur stdDeviation="86" result="effect1_foregroundBlur_137_2"/>
</filter>
<filter id="filter2_f_137_2" x="88.8711" y="-9.76245" width="905.716" height="982.85" filterUnits="userSpaceOnUse" color-interpolation-filters="sRGB">
<feFlood flood-opacity="0" result="BackgroundImageFix"/>
<feBlend mode="normal" in="SourceGraphic" in2="BackgroundImageFix" result="shape"/>
<feGaussianBlur stdDeviation="86" result="effect1_foregroundBlur_137_2"/>
</filter>
<filter id="filter3_f_137_2" x="-510.451" y="-383.34" width="1898.93" height="1470.42" filterUnits="userSpaceOnUse" color-interpolation-filters="sRGB">
<feFlood flood-opacity="0" result="BackgroundImageFix"/>
<feBlend mode="normal" in="SourceGraphic" in2="BackgroundImageFix" result="shape"/>
<feGaussianBlur stdDeviation="116" result="effect1_foregroundBlur_137_2"/>
</filter>
<radialGradient id="paint0_radial_137_2" cx="0" cy="0" r="1" gradientUnits="userSpaceOnUse" gradientTransform="translate(550.313 556.507) rotate(90) scale(500.712)">
<stop stop-color="white" stop-opacity="0.69"/>
<stop offset="1" stop-color="#F0F3F9" stop-opacity="0"/>
</radialGradient>
<clipPath id="clip0_137_2">
<rect width="1200" height="900" fill="white"/>
</clipPath>
<clipPath id="clip1_137_2">
<rect width="1202" height="1202" fill="white" transform="translate(11 -174)"/>
</clipPath>
<clipPath id="clip2_137_2">
<rect width="302" height="202" fill="white" transform="translate(449 349)"/>
</clipPath>
</defs>
</svg>
