<svg width="1800" height="840" viewBox="0 0 1800 840" fill="none" xmlns="http://www.w3.org/2000/svg">
<g clip-path="url(#clip0_54_4559)">
<path opacity="0.7" d="M900 0.5C1369.17 0.5 1749.5 380.834 1749.5 850C1749.5 1319.17 1369.17 1699.5 900 1699.5C430.834 1699.5 50.5 1319.17 50.5 850C50.5 380.834 430.834 0.5 900 0.5Z" stroke="#686868"/>
<path opacity="0.7" d="M900 200.5C1258.71 200.5 1549.5 491.291 1549.5 850C1549.5 1208.71 1258.71 1499.5 900 1499.5C541.291 1499.5 250.5 1208.71 250.5 850C250.5 491.291 541.291 200.5 900 200.5Z" stroke="#686868"/>
<path opacity="0.7" d="M900 400.5C1148.25 400.5 1349.5 601.748 1349.5 850C1349.5 1098.25 1148.25 1299.5 900 1299.5C651.748 1299.5 450.5 1098.25 450.5 850C450.5 601.748 651.748 400.5 900 400.5Z" stroke="#686868"/>
<path opacity="0.7" d="M900 600.5C1037.8 600.5 1149.5 712.205 1149.5 850C1149.5 987.795 1037.8 1099.5 900 1099.5C762.205 1099.5 650.5 987.795 650.5 850C650.5 712.205 762.205 600.5 900 600.5Z" stroke="#686868"/>
</g>
<defs>
<clipPath id="clip0_54_4559">
<rect width="1800" height="840" fill="none" transform="matrix(1 0 0 -1 0 840)"/>
</clipPath>
</defs>
</svg>
