<?xml version="1.0" encoding="UTF-8"?>
<svg xmlns="http://www.w3.org/2000/svg" width="175" height="45" viewBox="0 0 175 45" fill="none">
  <path d="M10.8606 30.9999C14.071 30.9999 18.3729 29.5145 18.3729 24.7087C18.3729 21.2718 15.612 19.699 11.3743 18.3592C7.10448 16.932 4.98564 16.1456 4.98564 14.0194C4.98564 11.6602 6.97607 10.4369 9.28754 10.4369C12.3695 10.4369 14.7773 12.8252 17.2814 17.165H17.3456L16.9282 10.2913C16.5109 10.3786 15.9972 10.4369 15.4835 10.4369C13.5894 10.4369 12.3374 10 9.64068 10C6.30189 10 2 11.7476 2 16.2621C2 19.0291 3.34836 20.9514 8.42074 22.4951C12.53 23.8058 15.3551 24.8252 15.3551 26.9805C15.3551 29.3397 13.6536 30.563 11.2138 30.563C6.3661 30.563 3.89412 25.8155 2.48156 22.9028H2.41735V30.9416C3.02732 30.6213 3.86201 30.3591 5.24247 30.3882C6.91186 30.4174 8.9344 30.9999 10.8606 30.9999Z" fill="white"></path>
  <path d="M29.4068 30.9574V30.8989C25.9376 29.5538 25.7168 28.3549 25.7168 26.074V16.7458H28.4922V16.3365H25.7168V11.4238H25.6537C24.1714 14.1433 21.5537 16.3072 19.4407 16.3949V16.7458H21.2384V25.5769C21.2384 29.1444 21.1753 31.3375 29.4068 30.9574Z" fill="white"></path>
  <path d="M38.3212 30.9998C41.9872 30.9998 46.1356 28.4098 46.1356 23.3179C46.1356 18.0789 41.5692 15.6948 38.2569 15.6948C34.623 15.6948 30.4746 18.2849 30.4746 23.3768C30.4746 28.6158 35.0411 30.9998 38.3212 30.9998ZM39.1573 30.6466C37.2278 30.6466 35.234 26.7027 35.234 21.6697C35.234 17.8728 36.3917 16.048 37.4529 16.048C39.4146 16.048 41.3762 19.992 41.3762 25.025C41.3762 28.8218 40.2185 30.6466 39.1573 30.6466Z" fill="white"></path>
  <path d="M61.8681 27.4814V18.8005C61.8681 17.5315 61.1268 16.4067 58.9673 16.4067C56.9046 16.4067 54.7774 17.3585 53.4882 18.0795V16.5798H47.2034V16.6375C48.8471 17.4161 48.9116 18.5698 48.9116 20.0983V27.4814C48.9116 29.0099 48.8471 30.1635 47.2034 30.9422V30.9999H54.9064V30.9422C53.5849 30.25 53.4882 29.0099 53.4882 27.4814V18.4832C54.4874 17.9064 55.2609 17.8199 55.841 17.8199C56.9046 17.8199 57.2914 18.6851 57.2914 19.608V27.4814C57.2914 29.0099 57.1302 30.25 55.841 30.9422V30.9999H63.5762V30.9422C61.9325 30.1635 61.8681 29.0099 61.8681 27.4814Z" fill="white"></path>
  <path d="M73.8547 27.6906C71.6337 27.6906 68.9554 26.2133 68.7921 22.1064H78.5254C78.2641 18.0585 75.4878 15.6948 72.1563 15.6948C68.6941 15.6948 64.644 18.2358 64.644 23.3769C64.644 28.6066 68.4002 30.9998 71.7644 30.9998C75.2265 30.9998 77.4475 28.2225 78.2641 25.8292L78.1988 25.7997C76.8596 26.9815 75.2265 27.6906 73.8547 27.6906ZM71.4704 16.0494C72.9729 16.0494 74.116 18.3244 74.2467 21.6927H68.7921C68.7921 17.6449 70.3926 16.0494 71.4704 16.0494Z" fill="white"></path>
  <path d="M90.2244 30.9999C94.9457 30.9999 101.305 27.7143 101.305 20.6779C101.305 13.6125 95.0421 10.356 90.4171 10.356C88.779 10.356 85.0212 10.5304 83.3511 10.5304H79.5933V10.5886C81.0707 11.1992 82.0021 12.5367 82.0021 14.0777V27.3363C82.0021 28.8774 81.0707 30.2149 79.5933 30.8255V30.8836H83.6723C85.6957 30.8836 88.6185 30.9999 90.2244 30.9999ZM89.7747 30.5347C88.9718 30.5347 87.7513 30.4766 87.0447 30.3312V10.9375C87.398 10.9084 87.9119 10.8793 88.2652 10.8793C92.4405 10.8793 95.7808 16.2293 95.7808 22.3353C95.7808 28.3249 92.7296 30.5347 89.7747 30.5347Z" fill="white"></path>
  <path d="M106.334 14.8235C107.786 14.8235 108.975 13.8307 108.975 12.5751C108.975 11.3487 107.786 10.356 106.334 10.356C104.882 10.356 103.693 11.3487 103.693 12.5751C103.693 13.8307 104.882 14.8235 106.334 14.8235ZM102.373 30.9999H110.559V30.9415C108.876 30.1531 108.81 28.9852 108.81 27.4376V16.4002H102.373V16.4586C104.056 17.247 104.122 18.415 104.122 19.9626V27.4376C104.122 28.9852 104.056 30.1531 102.373 30.9415V30.9999Z" fill="white"></path>
  <path d="M124.467 28.4121H117.496C116.62 28.4121 115.907 28.4121 115.907 27.9478C115.907 27.5417 116.718 26.9904 117.496 26.9614C117.917 27.0194 118.339 27.0484 118.728 27.0484C122.003 27.0484 125.926 25.3076 125.926 21.71C125.926 20.3464 125.245 19.3019 124.208 18.5766L127.256 17.1259V17.0679H118.858C115.875 17.0679 112.308 19.0408 112.308 22.2032C112.308 24.7854 114.383 26.2651 116.653 26.7873C114.416 27.7157 112.438 28.8182 112.438 30.0368C112.438 31.1103 113.54 31.5165 114.902 31.6035C113.119 32.4739 111.627 33.6344 111.627 34.94C111.627 36.1586 112.762 37 115.259 37C121.614 37 127.288 31.5165 127.288 29.7757C127.288 28.6442 126.056 28.4121 124.467 28.4121ZM118.566 17.416C119.895 17.416 121.419 19.534 121.419 22.6094C121.419 25.0465 120.836 26.6713 119.766 26.6713C118.307 26.6713 116.88 24.2051 116.88 21.2168C116.88 18.5185 117.723 17.416 118.566 17.416ZM117.561 34.5629C115.096 34.5629 114.448 33.9246 114.448 33.2283C114.448 32.5319 114.902 32.0097 115.421 31.6325H115.745H124.273C124.954 31.6325 125.245 31.6615 125.245 31.9807C125.245 33.0252 121.095 34.5629 117.561 34.5629Z" fill="white"></path>
  <path d="M132.317 14.8235C133.77 14.8235 134.958 13.8307 134.958 12.5751C134.958 11.3487 133.77 10.356 132.317 10.356C130.865 10.356 129.676 11.3487 129.676 12.5751C129.676 13.8307 130.865 14.8235 132.317 14.8235ZM128.356 30.9999H136.542V30.9415C134.859 30.1531 134.793 28.9852 134.793 27.4376V16.4002H128.356V16.4586C130.039 17.247 130.105 18.415 130.105 19.9626V27.4376C130.105 28.9852 130.039 30.1531 128.356 30.9415V30.9999Z" fill="white"></path>
  <path d="M147.932 30.9574V30.8989C144.339 29.5538 144.11 28.3549 144.11 26.074V16.7458H146.985V16.3365H144.11V11.4238H144.045C142.51 14.1433 139.799 16.3072 137.61 16.3949V16.7458H139.472V25.5769C139.472 29.1444 139.407 31.3375 147.932 30.9574Z" fill="white"></path>
  <path d="M161.878 27.2918V19.4669C161.878 17.6274 160.81 16.0508 157.607 16.0508C155.698 16.0508 153.821 16.3136 152.365 16.5471L149.68 19.788L149.744 19.8464C150.909 18.9121 153.854 16.5179 155.601 16.5179C156.831 16.5179 157.478 17.5398 157.478 18.7661C157.478 20.4888 156.345 21.2771 153.239 22.9414C150.424 24.4304 149 25.3648 149 27.5254C149 29.0728 150.23 30.9999 153.109 30.9999C154.565 30.9999 156.313 29.8904 157.348 29.102V30.8539H163.593V30.7955C161.943 30.0071 161.878 28.8393 161.878 27.2918ZM155.536 29.5692C154.533 29.5692 153.336 28.3721 153.336 26.591C153.336 23.5837 154.145 23.1458 157.348 20.7808V27.5838C157.348 28.8393 156.539 29.5692 155.536 29.5692Z" fill="white"></path>
  <path d="M164.661 30.9999H172.492V30.942C170.881 30.1594 170.818 29.0001 170.818 27.464V10.7119H164.661V10.7699C166.271 11.5524 166.334 12.7117 166.334 14.2478V27.464C166.334 29.0001 166.271 30.1594 164.661 30.942V30.9999Z" fill="white"></path>
</svg>
