<?xml version="1.0" encoding="UTF-8"?>
<svg xmlns="http://www.w3.org/2000/svg" width="26" height="26" viewBox="0 0 26 26">
  <g id="heart-rate-monitor--desktop-health-medical-heart-rate-monitor" transform="translate(-1.875 -1.875)">
    <path id="Vector_51" data-name="Vector 51" d="M8.625,15.377H12.85l1.4-2.682,3.091,5.846,3.091-8L22.1,15.377h3.663" transform="translate(-2.321 -3.095)" fill="none" stroke="#fff" stroke-linecap="round" stroke-linejoin="round" stroke-width="2"></path>
    <path id="Union" d="M21.2,33.542H16.628L16.24,35.48a1.143,1.143,0,0,1-1.12.919H14.6a1.714,1.714,0,0,0-1.681,1.378l-.022.112a1.143,1.143,0,0,0,1.12,1.367h9.784a1.143,1.143,0,0,0,1.121-1.367l-.023-.112A1.714,1.714,0,0,0,23.223,36.4h-.515a1.143,1.143,0,0,1-1.121-.919Z" transform="translate(-4.039 -12.381)" fill="none" stroke="#fff" stroke-linecap="round" stroke-linejoin="round" stroke-width="2"></path>
    <path id="Rectangle_1097" data-name="Rectangle 1097" d="M3.129,18.329a2.859,2.859,0,0,0,2.728,2.6c1.843.114,4.793.236,9.018.236s7.175-.121,9.018-.236a2.859,2.859,0,0,0,2.728-2.6c.131-1.415.254-3.49.254-6.311s-.122-4.9-.254-6.311a2.859,2.859,0,0,0-2.728-2.6C22.05,3,19.1,2.875,14.875,2.875S7.7,3,5.857,3.111a2.859,2.859,0,0,0-2.728,2.6C3,7.122,2.875,9.2,2.875,12.018s.122,4.9.254,6.311Z" fill="none" stroke="#fff" stroke-linecap="round" stroke-linejoin="round" stroke-width="2"></path>
  </g>
</svg>
