<?xml version="1.0" encoding="UTF-8"?>
<svg xmlns="http://www.w3.org/2000/svg" width="23.151" height="26.036" viewBox="0 0 23.151 26.036">
  <g id="shield-defense--entertainment-gaming-shield-defense" transform="translate(-1.75 -0.649)">
    <path id="Rectangle_136" data-name="Rectangle 136" d="M2.75,6.744A2.349,2.349,0,0,1,4.306,4.532L11.34,2.007a5.875,5.875,0,0,1,3.971,0l7.035,2.525A2.349,2.349,0,0,1,23.9,6.744V11.6c0,7.031-3.628,11.04-9.2,13.747a3.143,3.143,0,0,1-2.744,0c-5.576-2.708-9.2-6.716-9.2-13.747V6.744Z" transform="translate(0)" fill="none" stroke="#fff" stroke-linejoin="round" stroke-width="2"></path>
    <path id="Rectangle_137" data-name="Rectangle 137" d="M5.5,8.249a1.3,1.3,0,0,1,.863-1.223l6.08-2.175a2.618,2.618,0,0,1,1.763,0l6.08,2.175a1.3,1.3,0,0,1,.863,1.223v3.883c0,5.393-2.9,8.373-7.315,10.372a1.238,1.238,0,0,1-1.021,0C8.4,20.506,5.5,17.525,5.5,12.132Z" transform="translate(0 0)" fill="none" stroke="#fff" stroke-linejoin="round" stroke-width="2"></path>
    <path id="Vector_1589" data-name="Vector 1589" d="M11,5.042V22.236" transform="translate(2.326 0)" fill="none" stroke="#fff" stroke-linecap="round" stroke-linejoin="round" stroke-width="2"></path>
    <path id="Vector_1590" data-name="Vector 1590" d="M21.151,10.542H5.5" transform="translate(0 2.503)" fill="none" stroke="#fff" stroke-linecap="round" stroke-linejoin="round" stroke-width="2"></path>
  </g>
</svg>
