<svg xmlns="http://www.w3.org/2000/svg" width="16" height="15" viewBox="0 0 16 15" fill="none">
  <path d="M1.92383 14.75C1.51133 14.75 1.15833 14.6033 0.864828 14.3097C0.571328 14.0162 0.424328 13.663 0.423828 13.25V5C0.423828 4.5875 0.570828 4.2345 0.864828 3.941C1.15883 3.6475 1.51183 3.5005 1.92383 3.5H4.92383V2C4.92383 1.5875 5.07083 1.2345 5.36483 0.941C5.65883 0.6475 6.01183 0.5005 6.42383 0.5H9.42383C9.83633 0.5 10.1896 0.647 10.4836 0.941C10.7776 1.235 10.9243 1.588 10.9238 2V3.5H13.9238C14.3363 3.5 14.6896 3.647 14.9836 3.941C15.2776 4.235 15.4243 4.588 15.4238 5V13.25C15.4238 13.6625 15.2771 14.0157 14.9836 14.3097C14.6901 14.6038 14.3368 14.7505 13.9238 14.75H1.92383ZM6.42383 3.5H9.42383V2H6.42383V3.5ZM13.9238 10.25H10.1738V11.75H5.67383V10.25H1.92383V13.25H13.9238V10.25ZM7.17383 10.25H8.67383V8.75H7.17383V10.25ZM1.92383 8.75H5.67383V7.25H10.1738V8.75H13.9238V5H1.92383V8.75Z" fill="white"/>
</svg>