<svg width="18" height="18" viewBox="0 0 18 18" fill="none" xmlns="http://www.w3.org/2000/svg">
<path d="M8.48801 9.13086H10.012" stroke="white" stroke-width="1.5" stroke-linecap="round" stroke-linejoin="round"/>
<path d="M12.298 9.13086H13.822" stroke="white" stroke-width="1.5" stroke-linecap="round" stroke-linejoin="round"/>
<path d="M6.20302 9.13086H4.67902" stroke="white" stroke-width="1.5" stroke-linecap="round" stroke-linejoin="round"/>
<path d="M8.48801 12.9414H10.012" stroke="white" stroke-width="1.5" stroke-linecap="round" stroke-linejoin="round"/>
<path d="M12.298 12.9414H13.822" stroke="white" stroke-width="1.5" stroke-linecap="round" stroke-linejoin="round"/>
<path d="M6.20302 12.9414H4.67902" stroke="white" stroke-width="1.5" stroke-linecap="round" stroke-linejoin="round"/>
<path d="M4.29901 2.86914C3.86601 2.91114 3.49202 2.95514 3.17502 2.99714C2.77125 3.04633 2.39518 3.228 2.10567 3.51371C1.81616 3.79942 1.62954 4.17306 1.57502 4.57614C1.34616 6.2767 1.23756 7.99129 1.25001 9.70714C1.23841 11.4217 1.34768 13.1349 1.57701 14.8341C1.63154 15.2372 1.81816 15.6109 2.10767 15.8966C2.39718 16.1823 2.77325 16.3639 3.17702 16.4131C5.19185 16.6576 7.2205 16.7702 9.25002 16.7501C11.2806 16.7686 13.3103 16.6544 15.326 16.4081C15.7298 16.3589 16.1059 16.1773 16.3954 15.8916C16.6849 15.6059 16.8715 15.2322 16.926 14.8291C17.1541 13.1315 17.2624 11.42 17.25 9.70714C17.2616 7.99258 17.1524 6.27933 16.923 4.58014C16.8685 4.17706 16.6819 3.80342 16.3924 3.51771C16.1029 3.232 15.7268 3.05033 15.323 3.00114C15.006 2.95914 14.632 2.91514 14.199 2.87314" stroke="white" stroke-width="1.5" stroke-linecap="round" stroke-linejoin="round"/>
<path d="M11.155 2.68327C10.569 2.66461 9.93233 2.65527 9.245 2.65527C8.55767 2.65527 7.92433 2.66461 7.345 2.68327" stroke="white" stroke-width="1.5" stroke-linecap="round" stroke-linejoin="round"/>
<path d="M11.155 3.139C11.1459 3.32026 11.1733 3.50152 11.2357 3.67195C11.2981 3.84238 11.3942 3.99851 11.5182 4.13102C11.6422 4.26354 11.7916 4.36972 11.9576 4.44325C12.1235 4.51678 12.3026 4.55614 12.484 4.559H12.864C13.0455 4.55614 13.2245 4.51678 13.3905 4.44325C13.5564 4.36972 13.7058 4.26354 13.8299 4.13102C13.9539 3.99851 14.05 3.84238 14.1123 3.67195C14.1747 3.50152 14.2022 3.32026 14.193 3.139C14.193 2.988 14.193 2.827 14.193 2.655C14.193 2.483 14.193 2.322 14.193 2.171C14.2023 1.99007 14.1751 1.80911 14.1131 1.63889C14.0511 1.46867 13.9555 1.31265 13.832 1.18009C13.7085 1.04754 13.5596 0.941166 13.3942 0.867282C13.2287 0.793398 13.0502 0.753514 12.869 0.75H12.489C12.307 0.752185 12.1274 0.791091 11.9608 0.864386C11.7942 0.93768 11.6441 1.04385 11.5196 1.17655C11.395 1.30924 11.2985 1.46571 11.2359 1.63659C11.1732 1.80747 11.1457 1.98924 11.155 2.171C11.155 2.322 11.155 2.483 11.155 2.655C11.155 2.827 11.155 2.988 11.155 3.139Z" stroke="white" stroke-width="1.5" stroke-linecap="round" stroke-linejoin="round"/>
<path d="M4.298 3.139C4.28885 3.32026 4.31629 3.50152 4.37868 3.67195C4.44108 3.84238 4.53715 3.99851 4.66117 4.13102C4.78519 4.26354 4.93462 4.36972 5.10055 4.44325C5.26649 4.51678 5.44553 4.55614 5.627 4.559H6.007C6.18847 4.55614 6.36751 4.51678 6.53345 4.44325C6.69938 4.36972 6.84881 4.26354 6.97284 4.13102C7.09686 3.99851 7.19293 3.84238 7.25532 3.67195C7.31771 3.50152 7.34515 3.32026 7.336 3.139C7.336 2.988 7.336 2.827 7.336 2.655C7.336 2.483 7.336 2.322 7.336 2.171C7.34528 1.99007 7.3181 1.80911 7.25608 1.63889C7.19405 1.46867 7.09845 1.31265 6.97495 1.18009C6.85145 1.04754 6.70256 0.941166 6.53714 0.867282C6.37172 0.793398 6.19314 0.753514 6.012 0.75H5.632C5.45001 0.752185 5.27034 0.791091 5.10376 0.864386C4.93717 0.93768 4.78709 1.04385 4.66253 1.17655C4.53796 1.30924 4.44147 1.46571 4.37883 1.63659C4.31619 1.80747 4.2887 1.98924 4.298 2.171C4.298 2.322 4.298 2.483 4.298 2.655C4.298 2.827 4.298 2.988 4.298 3.139Z" stroke="white" stroke-width="1.5" stroke-linecap="round" stroke-linejoin="round"/>
</svg>
