<svg width="16" height="18" viewBox="0 0 16 18" fill="none" xmlns="http://www.w3.org/2000/svg">
<path d="M14.736 7.493C14.736 12.333 9.736 15.783 8.346 16.647C8.24024 16.7139 8.11766 16.7495 7.9925 16.7495C7.86734 16.7495 7.74476 16.7139 7.639 16.647C6.25 15.783 1.25 12.333 1.25 7.493C1.25 5.70465 1.96042 3.98954 3.22498 2.72498C4.48954 1.46042 6.20465 0.75 7.993 0.75C9.78135 0.75 11.4965 1.46042 12.761 2.72498C14.0256 3.98954 14.736 5.70465 14.736 7.493Z" stroke="white" stroke-width="1.5" stroke-linecap="round" stroke-linejoin="round"/>
<path d="M10.99 7.49609C10.99 8.08944 10.814 8.66946 10.4844 9.1628C10.1548 9.65615 9.68622 10.0407 9.13804 10.2677C8.58986 10.4948 7.98667 10.5542 7.40472 10.4384C6.82278 10.3227 6.28823 10.037 5.86867 9.61741C5.44911 9.19786 5.16339 8.66331 5.04764 8.08137C4.93188 7.49942 4.99129 6.89622 5.21835 6.34804C5.44542 5.79987 5.82993 5.33133 6.32328 5.00169C6.81663 4.67204 7.39665 4.49609 7.98999 4.49609C8.78564 4.49609 9.5487 4.81216 10.1113 5.37477C10.6739 5.93738 10.99 6.70044 10.99 7.49609Z" stroke="white" stroke-width="1.5" stroke-linecap="round" stroke-linejoin="round"/>
</svg>
