<svg width="18" height="18" viewBox="0 0 18 18" fill="none" xmlns="http://www.w3.org/2000/svg">
<path d="M10.899 11.9689C10.2783 12.3232 9.57248 12.5009 8.858 12.4829C8.41244 12.5 7.96819 12.4241 7.55356 12.2601C7.13894 12.0961 6.76302 11.8475 6.44975 11.5302C6.13649 11.2129 5.89274 10.8338 5.73405 10.4171C5.57535 10.0004 5.50518 9.5552 5.528 9.1099C5.50844 8.55915 5.60143 8.01021 5.80128 7.49664C6.00113 6.98306 6.30364 6.51565 6.69031 6.12299C7.07698 5.73032 7.53969 5.42066 8.05013 5.21294C8.56057 5.00522 9.10802 4.9038 9.659 4.9149C10.6238 4.89146 11.5716 5.17126 12.369 5.7149C12.6036 5.87834 12.7866 6.10543 12.8965 6.36941C13.0063 6.63339 13.0384 6.92327 12.989 7.2049L12.489 10.4599C13.979 11.2409 15.156 9.6979 15.156 7.7529C15.156 5.0019 13.05 2.8249 9.627 2.8249C7.98772 2.84503 6.41957 3.49759 5.24995 4.64635C4.08033 5.7951 3.39964 7.35124 3.35 8.9899C3.3252 10.4555 3.87932 11.8718 4.89214 12.9314C5.90496 13.991 7.29477 14.6085 8.76 14.6499C9.27074 14.644 9.78052 14.6042 10.286 14.5309C10.4307 14.5022 10.5808 14.5252 10.7102 14.5959C10.8396 14.6667 10.9401 14.7806 10.994 14.9179C11.1021 15.172 11.1174 15.4561 11.0374 15.7204C10.9573 15.9847 10.7869 16.2124 10.556 16.3639C9.94075 16.6751 9.25097 16.8088 8.564 16.7499C7.57192 16.728 6.59409 16.5091 5.6874 16.1058C4.78072 15.7026 3.96328 15.123 3.28266 14.4009C2.60204 13.6788 2.07183 12.8285 1.72287 11.8995C1.3739 10.9706 1.21316 9.98154 1.25 8.9899C1.252 7.89688 1.47102 6.81514 1.89436 5.80743C2.31769 4.79972 2.93691 3.88609 3.71609 3.11956C4.49527 2.35303 5.41891 1.74885 6.43341 1.34207C7.44792 0.935292 8.5331 0.734007 9.626 0.749896C13.55 0.749896 17.25 3.5159 17.25 7.7569C17.25 10.3879 15.863 12.5679 13.05 12.5679C12.2905 12.578 11.544 12.3701 10.899 11.9689ZM8.287 9.0929C8.287 9.7579 8.616 10.2929 9.332 10.2929C9.62496 10.3 9.91197 10.2096 10.148 10.0359L10.393 7.3649C10.1636 7.2388 9.9034 7.17956 9.642 7.1939C9.45328 7.19461 9.26746 7.24035 9.09997 7.32731C8.93248 7.41427 8.78816 7.53995 8.679 7.6939C8.39199 8.1012 8.2536 8.59474 8.287 9.0919V9.0929Z" stroke="white" stroke-width="1.5" stroke-linejoin="round"/>
</svg>
