<svg width="18" height="18" viewBox="0 0 18 18" fill="none" xmlns="http://www.w3.org/2000/svg">
<path d="M17.25 8.74996C17.2497 7.52411 16.9677 6.31473 16.4257 5.21518C15.8838 4.11564 15.0964 3.15534 14.1244 2.40843C13.1524 1.66152 12.0217 1.14798 10.8197 0.907458C9.61766 0.666934 8.37644 0.705861 7.19186 1.02123C6.00727 1.3366 4.911 1.91999 3.98769 2.72634C3.06438 3.53268 2.33872 4.54043 1.86674 5.67178C1.39476 6.80312 1.18909 8.0278 1.2656 9.25126C1.34211 10.4747 1.69875 11.6642 2.308 12.728C1.93213 13.7053 1.63517 14.7112 1.42 15.736C1.39577 15.8497 1.40092 15.9678 1.43495 16.079C1.46898 16.1903 1.53078 16.291 1.61453 16.3718C1.69827 16.4525 1.8012 16.5106 1.9136 16.5405C2.026 16.5705 2.14418 16.5713 2.257 16.543C3.24964 16.3024 4.22677 16.0019 5.183 15.643C6.39824 16.3604 7.78163 16.7436 9.19279 16.7537C10.604 16.7638 11.9927 16.4004 13.2181 15.7004C14.4434 15.0005 15.4618 13.9888 16.17 12.7681C16.8781 11.5474 17.2507 10.1612 17.25 8.74996Z" stroke="white" stroke-width="1.5" stroke-linejoin="round"/>
</svg>
