<svg width="18" height="18" viewBox="0 0 18 18" fill="none" xmlns="http://www.w3.org/2000/svg">
<path d="M17.25 4.56C17.25 4.05966 17.1515 3.56423 16.96 3.10198C16.7685 2.63973 16.4879 2.21971 16.1341 1.86592C15.7803 1.51213 15.3603 1.23149 14.898 1.04002C14.4358 0.848549 13.9403 0.75 13.44 0.75H13.223C12.9947 0.75001 12.7716 0.818409 12.5825 0.946382C12.3933 1.07435 12.2469 1.25603 12.162 1.468L11.223 3.817C11.1123 4.09381 11.0853 4.397 11.1452 4.68903C11.2051 4.98106 11.3493 5.24912 11.56 5.46L12.732 6.632C12.8256 6.72293 12.8927 6.83758 12.9261 6.96369C12.9596 7.0898 12.9582 7.22264 12.922 7.348C12.5569 8.54451 11.9034 9.633 11.019 10.5177C10.1346 11.4025 9.04637 12.0564 7.85 12.422C7.72464 12.4582 7.5918 12.4596 7.46569 12.4261C7.33958 12.3927 7.22493 12.3256 7.134 12.232L5.961 11.061C5.75012 10.8503 5.48206 10.7061 5.19003 10.6462C4.898 10.5863 4.59481 10.6133 4.318 10.724L1.969 11.663C1.75685 11.7477 1.57496 11.8941 1.4468 12.0832C1.31864 12.2724 1.25009 12.4955 1.25 12.724V12.941C1.25027 13.9513 1.65179 14.9201 2.36628 15.6344C3.08076 16.3487 4.0497 16.75 5.06 16.75H5.25C8.37674 16.7512 11.3805 15.5319 13.6217 13.3517C15.863 11.1715 17.1648 8.20258 17.25 5.077V4.56Z" stroke="white" stroke-width="1.5" stroke-linejoin="round"/>
</svg>
