<svg width="18" height="18" viewBox="0 0 18 18" fill="none" xmlns="http://www.w3.org/2000/svg">
<path d="M17.25 8.75C17.25 10.3323 16.7808 11.879 15.9018 13.1946C15.0227 14.5102 13.7733 15.5355 12.3115 16.141C10.8497 16.7465 9.24113 16.905 7.68928 16.5963C6.13743 16.2876 4.71197 15.5257 3.59315 14.4069C2.47433 13.288 1.7124 11.8626 1.40372 10.3107C1.09504 8.75887 1.25347 7.15034 1.85897 5.68853C2.46447 4.22672 3.48985 2.97729 4.80544 2.09824C6.12103 1.21919 7.66775 0.75 9.25 0.75C11.3717 0.75 13.4066 1.59285 14.9069 3.09315C16.4071 4.59344 17.25 6.62827 17.25 8.75Z" stroke="white" stroke-width="1.5" stroke-linecap="round" stroke-linejoin="round"/>
<path d="M4.89501 15.4625C5.41743 14.395 6.31443 13.5571 7.41501 13.1085C6.40948 12.6848 5.5815 11.9263 5.07153 10.9616C4.56157 9.99698 4.40103 8.88562 4.61716 7.81609C4.83329 6.74656 5.41277 5.78474 6.25729 5.09381C7.10181 4.40288 8.15936 4.02539 9.25051 4.02539C10.3417 4.02539 11.3992 4.40288 12.2437 5.09381C13.0882 5.78474 13.6677 6.74656 13.8838 7.81609C14.1 8.88562 13.9394 9.99698 13.4295 10.9616C12.9195 11.9263 12.0915 12.6848 11.086 13.1085C12.1866 13.5571 13.0836 14.395 13.606 15.4625" stroke="white" stroke-width="1.5" stroke-linecap="round" stroke-linejoin="round"/>
</svg>
