<svg width="18" height="18" viewBox="0 0 18 18" fill="none" xmlns="http://www.w3.org/2000/svg">
<path d="M9.25 16.75C13.6683 16.75 17.25 13.1683 17.25 8.75C17.25 4.33172 13.6683 0.75 9.25 0.75C4.83172 0.75 1.25 4.33172 1.25 8.75C1.25 13.1683 4.83172 16.75 9.25 16.75Z" stroke="white" stroke-width="1.5" stroke-linejoin="round"/>
<path d="M9.25001 16.75C11.1438 16.75 12.679 13.1683 12.679 8.75C12.679 4.33172 11.1438 0.75 9.25001 0.75C7.35623 0.75 5.82101 4.33172 5.82101 8.75C5.82101 13.1683 7.35623 16.75 9.25001 16.75Z" stroke="white" stroke-width="1.5" stroke-linejoin="round"/>
<path d="M1.82101 11.417H16.678" stroke="white" stroke-width="1.5" stroke-linecap="round"/>
<path d="M1.82101 6.08301H16.678" stroke="white" stroke-width="1.5" stroke-linecap="round"/>
</svg>
