<svg xmlns="http://www.w3.org/2000/svg" width="26" height="26" viewBox="0 0 26 26">
  <g id="browser-code-2--code-browser-tags-angle-bracket" transform="translate(-0.375 -0.375)">
    <path id="Vector_1456" data-name="Vector 1456" d="M8.012,10.542S4.583,12.827,4.583,13.97,8.012,17.4,8.012,17.4" transform="translate(0.792 2.262)" fill="none" stroke="#fff" stroke-linecap="round" stroke-linejoin="round" stroke-width="2"/>
    <path id="Vector_1457" data-name="Vector 1457" d="M14.667,10.542S18.1,12.827,18.1,13.97,14.667,17.4,14.667,17.4" transform="translate(3.28 2.262)" fill="none" stroke="#fff" stroke-linecap="round" stroke-linejoin="round" stroke-width="2"/>
    <path id="Vector_1665" data-name="Vector 1665" d="M12.369,10.083l-2.286,8" transform="translate(2.149 2.149)" fill="none" stroke="#fff" stroke-linecap="round" stroke-linejoin="round" stroke-width="2"/>
    <path id="Rectangle_1096" data-name="Rectangle 1096" d="M1.683,22.371a2.91,2.91,0,0,0,2.7,2.7c1.845.15,4.788.308,9,.308s7.151-.158,9-.308a2.91,2.91,0,0,0,2.7-2.7c.15-1.845.308-4.788.308-9s-.158-7.151-.308-9a2.91,2.91,0,0,0-2.7-2.7c-1.845-.15-4.788-.308-9-.308s-7.151.158-9,.308a2.91,2.91,0,0,0-2.7,2.7c-.15,1.845-.308,4.788-.308,9S1.533,20.526,1.683,22.371Z" transform="translate(0 0)" fill="none" stroke="#fff" stroke-linejoin="round" stroke-width="2"/>
    <path id="Vector_146" data-name="Vector 146" d="M1.6,6.188H25.033" transform="translate(0.057 1.188)" fill="none" stroke="#fff" stroke-linecap="round" stroke-width="2"/>
    <path id="Vector_1501" data-name="Vector 1501" d="M4.583,3.9H5.726" transform="translate(0.792 0.622)" fill="none" stroke="#fff" stroke-linecap="round" stroke-linejoin="round" stroke-width="2"/>
    <path id="Vector_1502" data-name="Vector 1502" d="M8.25,3.9H9.393" transform="translate(1.696 0.622)" fill="none" stroke="#fff" stroke-linecap="round" stroke-linejoin="round" stroke-width="2"/>
  </g>
</svg>
