<svg xmlns="http://www.w3.org/2000/svg" width="26.103" height="26.024" viewBox="0 0 26.103 26.024">
  <g id="chat-bubble-square-write--messages-message-bubble-chat-square-write-review-pen-pencil-compose" transform="translate(-0.375 -0.375)">
    <path id="Union" d="M23.029,2.426a2.93,2.93,0,0,0-1.826-.8c-1.759-.125-4.519-.255-8.431-.255S6.1,1.5,4.341,1.63a2.875,2.875,0,0,0-2.7,2.652c-.133,1.589-.263,4-.263,7.35s.13,5.761.263,7.35a2.875,2.875,0,0,0,2.7,2.652c.733.052,1.64.105,2.732.15v2.45a1.14,1.14,0,0,0,1.8.927l4.581-3.273c3.551-.014,6.092-.136,7.745-.254a2.875,2.875,0,0,0,2.7-2.652c.1-1.15.191-2.731.236-4.785" fill="none" stroke="#fff" stroke-linecap="round" stroke-linejoin="round" stroke-width="2"/>
    <path id="Rectangle_63" data-name="Rectangle 63" d="M22.206,9.212a2.239,2.239,0,0,0,.431-2.971,9.979,9.979,0,0,0-1.774-1.774,2.24,2.24,0,0,0-2.971.432l-6.3,6.3a1.828,1.828,0,0,0-.556,1.141,19.636,19.636,0,0,0,.008,2.7,1.09,1.09,0,0,0,1.021,1.021,19.476,19.476,0,0,0,2.7.009,1.825,1.825,0,0,0,1.141-.556l6.3-6.3Z" transform="translate(2.342 0.656)" fill="none" stroke="#fff" stroke-linejoin="round" stroke-width="2"/>
    <path id="Rectangle_64" data-name="Rectangle 64" d="M19.572,9.947a5.632,5.632,0,0,0-1.6-2.389,5.636,5.636,0,0,0-2.389-1.6" transform="translate(3.457 1.115)" fill="none" stroke="#fff" stroke-linecap="round" stroke-linejoin="round" stroke-width="2"/>
    <path id="Vector_1119" data-name="Vector 1119" d="M5.042,5.5H12.45" transform="translate(0.892 1.004)" fill="none" stroke="#fff" stroke-linecap="round" stroke-linejoin="round" stroke-width="2"/>
    <path id="Vector_1121" data-name="Vector 1121" d="M5.042,12.833H8.461" transform="translate(0.892 2.788)" fill="none" stroke="#fff" stroke-linecap="round" stroke-linejoin="round" stroke-width="2"/>
    <path id="Vector_1120" data-name="Vector 1120" d="M5.042,9.167H9.031" transform="translate(0.892 1.896)" fill="none" stroke="#fff" stroke-linecap="round" stroke-linejoin="round" stroke-width="2"/>
  </g>
</svg>
