<svg xmlns="http://www.w3.org/2000/svg" width="25.999" height="26" viewBox="0 0 25.999 26">
  <g id="code-monitor-2--code-tags-angle-image-ui-ux-design" transform="translate(-0.375 -0.375)">
    <path id="Union" d="M14.48,16.043l.387,1.938a1.143,1.143,0,0,0,1.121.919H16.5a1.714,1.714,0,0,1,1.681,1.378l.023.112a1.143,1.143,0,0,1-1.121,1.367H7.3A1.143,1.143,0,0,1,6.182,20.39l.023-.112A1.714,1.714,0,0,1,7.885,18.9H8.4a1.143,1.143,0,0,0,1.121-.919l.388-1.938" transform="translate(1.18 3.618)" fill="none" stroke="#fff" stroke-linejoin="round" stroke-width="2"/>
    <path id="Rectangle_1095" data-name="Rectangle 1095" d="M1.629,16.828a2.859,2.859,0,0,0,2.728,2.6c1.843.114,4.793.236,9.018.236s7.175-.121,9.018-.236a2.859,2.859,0,0,0,2.728-2.6c.131-1.415.254-3.49.254-6.311s-.122-4.9-.254-6.311a2.859,2.859,0,0,0-2.728-2.6C20.55,1.5,17.6,1.375,13.374,1.375S6.2,1.5,4.357,1.611a2.859,2.859,0,0,0-2.728,2.6C1.5,5.622,1.375,7.7,1.375,10.517S1.5,15.413,1.629,16.828Z" fill="none" stroke="#fff" stroke-width="2"/>
    <path id="Vector_1666" data-name="Vector 1666" d="M8.021,1.6V19.318" transform="translate(1.639 0.057)" fill="none" stroke="#fff" stroke-linecap="round" stroke-linejoin="round" stroke-width="2"/>
    <path id="Vector_1668" data-name="Vector 1668" d="M4.125,5.042H5.839" transform="translate(0.678 0.905)" fill="none" stroke="#fff" stroke-linecap="round" stroke-linejoin="round" stroke-width="2"/>
    <path id="Vector_1671" data-name="Vector 1671" d="M10.542,5.042h9.142" transform="translate(2.261 0.905)" fill="none" stroke="#fff" stroke-linecap="round" stroke-linejoin="round" stroke-width="2"/>
    <path id="Vector_1669" data-name="Vector 1669" d="M4.125,8.25H5.839" transform="translate(0.678 1.696)" fill="none" stroke="#fff" stroke-linecap="round" stroke-linejoin="round" stroke-width="2"/>
    <path id="Vector_1672" data-name="Vector 1672" d="M10.542,8.25h9.142" transform="translate(2.261 1.696)" fill="none" stroke="#fff" stroke-linecap="round" stroke-linejoin="round" stroke-width="2"/>
    <path id="Vector_1674" data-name="Vector 1674" d="M10.542,11.458H17.4" transform="translate(2.261 2.487)" fill="none" stroke="#fff" stroke-linecap="round" stroke-linejoin="round" stroke-width="2"/>
  </g>
</svg>
