<svg xmlns="http://www.w3.org/2000/svg" width="27.154" height="26.004" viewBox="0 0 27.154 26.004">
  <g id="layers-1--design-layer-layers-pile-stack-align" transform="translate(-0.452 -0.888)">
    <path id="Rectangle_298" data-name="Rectangle 298" d="M24.9,14.362c.49.29.9.548,1.238.769a.983.983,0,0,1,0,1.68,40.961,40.961,0,0,1-4.86,2.682,33.558,33.558,0,0,1-6.459,2.348,3.366,3.366,0,0,1-1.572,0,33.559,33.559,0,0,1-6.459-2.348,40.94,40.94,0,0,1-4.859-2.682.983.983,0,0,1,0-1.68q.609-.4,1.237-.77" transform="translate(0 3.956)" fill="none" stroke="#fff" stroke-linecap="round" stroke-linejoin="round" stroke-width="2"/>
    <path id="Rectangle_299" data-name="Rectangle 299" d="M24.9,9.721c.49.29.9.549,1.237.77a.983.983,0,0,1,0,1.68,40.96,40.96,0,0,1-4.86,2.682A33.529,33.529,0,0,1,14.814,17.2a3.366,3.366,0,0,1-1.572,0,33.558,33.558,0,0,1-6.459-2.348,40.978,40.978,0,0,1-4.86-2.681.983.983,0,0,1,0-1.68q.61-.4,1.238-.77" transform="translate(0 2.484)" fill="none" stroke="#fff" stroke-linecap="round" stroke-linejoin="round" stroke-width="2"/>
    <path id="Rectangle_297" data-name="Rectangle 297" d="M13.243,1.983a3.366,3.366,0,0,1,1.572,0,33.5,33.5,0,0,1,6.459,2.348,40.96,40.96,0,0,1,4.86,2.682.983.983,0,0,1,0,1.68,41.067,41.067,0,0,1-4.86,2.681,33.558,33.558,0,0,1-6.459,2.349,3.366,3.366,0,0,1-1.572,0,33.56,33.56,0,0,1-6.459-2.348A41.047,41.047,0,0,1,1.925,8.693a.983.983,0,0,1,0-1.68,40.96,40.96,0,0,1,4.86-2.682,33.544,33.544,0,0,1,6.459-2.349Z" transform="translate(0)" fill="none" stroke="#fff" stroke-linecap="round" stroke-linejoin="round" stroke-width="2"/>
  </g>
</svg>
