<svg xmlns="http://www.w3.org/2000/svg" width="26" height="26" viewBox="0 0 26 26">
  <g id="module-puzzle-3--code-puzzle-module-programming-plugin-piece" transform="translate(-0.375 -0.375)">
    <path id="Rectangle_1096" data-name="Rectangle 1096" d="M1.683,22.371a2.91,2.91,0,0,0,2.7,2.7c1.845.15,4.788.308,9,.308s7.151-.158,9-.308a2.91,2.91,0,0,0,2.7-2.7c.15-1.845.308-4.788.308-9s-.158-7.151-.308-9a2.91,2.91,0,0,0-2.7-2.7c-1.845-.15-4.788-.308-9-.308s-7.151.158-9,.308a2.91,2.91,0,0,0-2.7,2.7c-.15,1.845-.308,4.788-.308,9S1.533,20.526,1.683,22.371Z" transform="translate(0 0)" fill="none" stroke="#fff" stroke-linejoin="round" stroke-width="2"/>
    <path id="Vector" d="M25.375,12.017H22.8c-.549,0-.9-.845-.721-1.365a2.857,2.857,0,1,0-5.411,0c.177.52-.171,1.365-.721,1.365H10.8c-.549,0-.9.845-.721,1.365a2.857,2.857,0,1,1-5.411,0c.177-.52-.171-1.365-.721-1.365H1.375" transform="translate(0 1.358)" fill="none" stroke="#fff" stroke-linecap="round" stroke-linejoin="round" stroke-width="2"/>
    <path id="Vector_2" d="M12.017,1.375V3.949c0,.549-.845.9-1.365.721a2.857,2.857,0,1,0,0,5.411c.52-.177,1.365.171,1.365.721v5.145c0,.549.845.9,1.365.721a2.857,2.857,0,1,1,0,5.411c-.52-.177-1.365.171-1.365.72v2.575" transform="translate(1.358 0)" fill="none" stroke="#fff" stroke-linecap="round" stroke-linejoin="round" stroke-width="2"/>
  </g>
</svg>
