<svg xmlns="http://www.w3.org/2000/svg" width="29.98" height="26.037" viewBox="0 0 29.98 26.037">
  <g id="user-work-laptop--geometric-work-laptop-person-single-user" transform="translate(-0.144 -3.185)">
    <path id="Union" d="M12.529,18.12a7.359,7.359,0,1,1,6.62,0,9.987,9.987,0,0,1,6.559,7.573,1.8,1.8,0,0,1-1.6,2.223c-.759.1-1.834.194-3.355.262" transform="translate(3.372)" fill="none" stroke="#fff" stroke-linecap="round" stroke-linejoin="round" stroke-width="2"/>
    <path id="Rectangle_56" data-name="Rectangle 56" d="M1.165,16.424a1.726,1.726,0,0,1,1.651-2.08c.858-.075,2.106-.136,3.893-.136,1.875,0,3.173.067,4.055.147a2.543,2.543,0,0,1,2.251,1.908c.18.689.4,1.647.639,2.963.1.547.19,1.026.27,1.447a3.667,3.667,0,0,0,3.558,2.9H4.622a2.436,2.436,0,0,1-2.456-1.768q-.323-1.28-.555-2.581-.263-1.395-.445-2.8Z" transform="translate(0 4.609)" fill="none" stroke="#fff" stroke-linecap="round" stroke-linejoin="round" stroke-width="2"/>
  </g>
</svg>
